<svg height='100px' width='100px'  fill="#FFFFFF" xmlns="http://www.w3.org/2000/svg" viewBox="0 0 66 66" x="0px" y="0px"><path d="M954.853359,528.500727 C954.576815,528.022666 954.740177,527.410939 955.218238,527.134395 C955.696298,526.857851 956.308026,527.021212 956.58457,527.499273 C959.462417,532.474199 961,538.126144 961,544 C961,549.873854 959.462417,555.525799 956.58457,560.500735 C956.308027,560.978796 955.696299,561.142158 955.218238,560.865615 C954.740178,560.589071 954.576815,559.977344 954.853359,559.499283 C957.556288,554.826727 959,549.519839 959,544 C959,538.48016 957.556288,533.173272 954.853359,528.500727 Z M943.499283,570.853359 C943.977344,570.576815 944.589071,570.740178 944.865615,571.218238 C945.142158,571.696299 944.978796,572.308027 944.500735,572.58457 C939.525799,575.462417 933.873854,577 928,577 C922.126146,577 916.474201,575.462417 911.499265,572.58457 C911.021204,572.308027 910.857842,571.696299 911.134385,571.218238 C911.410929,570.740178 912.022656,570.576815 912.500717,570.853359 C917.173273,573.556288 922.480161,575 928,575 C933.519839,575 938.826727,573.556288 943.499283,570.853359 Z M901.146641,559.499273 C901.423185,559.977334 901.259823,560.589061 900.781762,560.865605 C900.303702,561.142149 899.691974,560.978788 899.41543,560.500727 C896.537583,555.525801 895,549.873856 895,544 C895,538.126146 896.537583,532.474201 899.41543,527.499265 C899.691973,527.021204 900.303701,526.857842 900.781762,527.134385 C901.259822,527.410929 901.423185,528.022656 901.146641,528.500717 C898.443712,533.173273 897,538.480161 897,544 C897,549.51984 898.443712,554.826728 901.146641,559.499273 Z M912.500727,517.146641 C912.022666,517.423185 911.410939,517.259823 911.134395,516.781762 C910.857851,516.303702 911.021212,515.691974 911.499273,515.41543 C916.474199,512.537583 922.126144,511 928,511 C933.873854,511 939.525799,512.537583 944.500735,515.41543 C944.978796,515.691973 945.142158,516.303701 944.865615,516.781762 C944.589071,517.259822 943.977344,517.423185 943.499283,517.146641 C938.826727,514.443712 933.519839,513 928,513 C922.48016,513 917.173272,514.443712 912.500727,517.146641 Z" transform="translate(-895 -511)"></path></svg>