<svg height='100px' width='100px'  fill="#FFFFFF" xmlns="http://www.w3.org/2000/svg" xmlns:xlink="http://www.w3.org/1999/xlink" version="1.1" x="0px" y="0px" viewBox="0 0 100 100" style="enable-background:new 0 0 100 100;" xml:space="preserve"><style type="text/css">
	.st0{fill-rule:evenodd;clip-rule:evenodd;}
</style><g><polyline class="st0" points="15.45,41.369 15.36,41.597 15.216,41.795 15.026,41.95 14.803,42.051 14.561,42.091 14.317,42.069    12.765,41.724 12.527,41.637 12.321,41.491 12.161,41.295 12.057,41.064 12.018,40.814 12.046,40.563 12.513,38.853 13.056,37.166    13.676,35.505 14.37,33.874 15.137,32.276 15.976,30.715 16.885,29.193 17.862,27.714 18.904,26.28 20.011,24.896 21.179,23.563    22.407,22.284 23.691,21.062 25.029,19.9 26.419,18.799 27.857,17.763 29.34,16.792 30.866,15.89 32.431,15.058 34.033,14.298    35.667,13.611 37.33,12.999 37.578,12.95 37.831,12.967 38.07,13.051 38.278,13.194 38.442,13.386 38.549,13.615 39.027,15.132    39.07,15.374 39.05,15.618 38.968,15.849 38.831,16.051 38.646,16.212 38.427,16.321 36.845,16.907 35.292,17.567 33.772,18.3    32.289,19.104 30.846,19.978 29.445,20.919 28.091,21.925 26.786,22.994 25.533,24.124 24.334,25.312 23.194,26.555 22.114,27.851    21.096,29.197 20.143,30.589 19.257,32.025 18.44,33.502 17.694,35.015 17.021,36.562 16.421,38.139 15.897,39.743 15.45,41.369     "></polyline><polyline class="st0" points="87.001,37.33 87.05,37.578 87.033,37.831 86.949,38.07 86.806,38.278 86.614,38.442 86.385,38.549    84.868,39.027 84.626,39.07 84.382,39.05 84.151,38.968 83.949,38.831 83.788,38.646 83.679,38.427 83.093,36.845 82.433,35.292    81.7,33.772 80.896,32.289 80.022,30.846 79.081,29.445 78.075,28.091 77.006,26.786 75.876,25.533 74.688,24.334 73.445,23.194    72.149,22.114 70.803,21.096 69.411,20.143 67.975,19.257 66.498,18.44 64.985,17.694 63.438,17.021 61.861,16.421 60.257,15.897    58.631,15.45 58.403,15.36 58.205,15.216 58.05,15.026 57.949,14.803 57.909,14.561 57.931,14.317 58.276,12.765 58.363,12.527    58.509,12.321 58.705,12.161 58.936,12.057 59.186,12.018 59.437,12.046 61.147,12.513 62.834,13.056 64.495,13.676 66.126,14.37    67.724,15.137 69.285,15.976 70.807,16.885 72.286,17.862 73.72,18.904 75.104,20.011 76.437,21.179 77.716,22.407 78.938,23.691    80.1,25.029 81.201,26.419 82.237,27.857 83.208,29.34 84.11,30.866 84.942,32.431 85.702,34.033 86.389,35.667 87.001,37.33  "></polyline><polyline class="st0" points="61.573,83.679 63.155,83.093 64.708,82.433 66.228,81.7 67.711,80.896 69.154,80.022 70.555,79.081    71.909,78.075 73.214,77.006 74.467,75.876 75.666,74.688 76.806,73.445 77.886,72.149 78.904,70.803 79.857,69.411 80.743,67.975    81.56,66.498 82.306,64.985 82.979,63.438 83.579,61.861 84.103,60.257 84.55,58.631 84.64,58.403 84.784,58.205 84.974,58.05    85.197,57.949 85.439,57.909 85.683,57.931 87.235,58.276 87.473,58.363 87.679,58.509 87.839,58.705 87.943,58.936 87.982,59.186    87.954,59.437 87.487,61.147 86.944,62.834 86.324,64.495 85.63,66.126 84.863,67.724 84.024,69.285 83.115,70.807 82.138,72.286    81.096,73.72 79.989,75.104 78.821,76.437 77.593,77.716 76.309,78.938 74.971,80.1 73.581,81.201 72.143,82.237 70.66,83.208    69.134,84.11 67.569,84.942 65.967,85.702 64.333,86.389 62.67,87.001 62.422,87.05 62.169,87.033 61.93,86.949 61.722,86.806    61.558,86.614 61.451,86.385 60.973,84.868 60.93,84.626 60.95,84.382 61.032,84.151 61.169,83.949 61.354,83.788 61.573,83.679     "></polyline><polyline class="st0" points="12.999,62.67 12.95,62.422 12.967,62.169 13.051,61.93 13.194,61.722 13.386,61.558 13.615,61.451    15.132,60.973 15.374,60.93 15.618,60.95 15.849,61.032 16.051,61.169 16.212,61.354 16.321,61.573 16.907,63.155 17.567,64.708    18.3,66.228 19.104,67.711 19.978,69.154 20.919,70.555 21.925,71.909 22.994,73.214 24.124,74.467 25.312,75.666 26.555,76.806    27.851,77.886 29.197,78.904 30.589,79.857 32.025,80.743 33.502,81.56 35.015,82.306 36.562,82.979 38.139,83.579 39.743,84.103    41.369,84.55 41.597,84.64 41.795,84.784 41.95,84.974 42.051,85.197 42.091,85.439 42.069,85.683 41.724,87.235 41.637,87.473    41.491,87.679 41.295,87.839 41.064,87.943 40.814,87.982 40.563,87.954 38.853,87.487 37.166,86.944 35.505,86.324 33.874,85.63    32.276,84.863 30.715,84.024 29.193,83.115 27.714,82.138 26.28,81.096 24.896,79.989 23.563,78.821 22.284,77.593 21.062,76.309    19.9,74.971 18.799,73.581 17.763,72.143 16.792,70.66 15.89,69.134 15.058,67.569 14.298,65.967 13.611,64.333 12.999,62.67  "></polyline></g></svg>