<svg height='100px' width='100px'  fill="#FFFFFF" xmlns="http://www.w3.org/2000/svg" xmlns:xlink="http://www.w3.org/1999/xlink" xml:space="preserve" version="1.1" style="shape-rendering:geometricPrecision;text-rendering:geometricPrecision;image-rendering:optimizeQuality;" viewBox="0 0 847 847" x="0px" y="0px" fill-rule="evenodd" clip-rule="evenodd"><defs><style type="text/css">
   
    .fil0 {fill:#FFFFFF}
   
  </style></defs><g><path class="fil0" d="M423 20c223,0 403,181 403,403 0,223 -180,403 -403,403 -222,0 -402,-180 -402,-403 0,-222 180,-403 402,-403zm-259 128l117 -75c-43,17 -83,43 -117,75zm197 -98l-251 162c-14,20 -26,42 -36,65l361 -232c-25,-1 -50,1 -74,5zm125 747l251 -162c14,-20 26,-42 35,-65l-360 232c25,0 49,-1 74,-5zm196 -98l-116 75c43,-18 82,-43 116,-75zm-310 99l414 -266c5,-16 8,-32 11,-49l-475 305c17,5 33,8 50,10zm429 -347c1,-14 1,-28 0,-42l-548 352c13,7 26,12 39,17l509 -327zm-572 297l570 -367c-1,-13 -3,-26 -6,-38l-596 383c10,8 21,15 32,22zm558 -430c-4,-12 -8,-23 -12,-35l-625 402c8,9 17,17 27,25l610 -392zm-22 -57c-5,-11 -11,-22 -17,-32l-636 409c7,10 14,19 21,29l632 -406zm-666 357l636 -409c-7,-10 -14,-20 -22,-29l-631 406c5,11 10,21 17,32zm-27 -54l625 -402c-9,-9 -18,-17 -27,-25l-610 392c3,12 7,23 12,35zm-18 -60l596 -384c-10,-7 -21,-15 -32,-21l-571 367c2,13 4,25 7,38zm501 -436l-509 327c-1,15 -1,29 -1,43l549 -353c-13,-6 -26,-12 -39,-17zm-494 246c-5,17 -9,33 -11,50l474 -305c-16,-5 -33,-8 -49,-11l-414 266z"></path></g></svg>