<?xml version="1.0" encoding="UTF-8"?>
<svg width="1200pt" height="1200pt" version="1.1" viewBox="0 0 1200 1200" xmlns="http://www.w3.org/2000/svg">
 <g fill="#fff">
  <path d="m60 60v121.12h37.125v-84h84v-37.125z"/>
  <path d="m236.62 60v37.5h74.625v-37.5z"/>
  <path d="m627.75 60v37.5h74.625v-37.5z"/>
  <path d="m497.62 60v37.5h74.25v-37.5z"/>
  <path d="m367.12 60v37.5h74.625v-37.5z"/>
  <path d="m888.38 60v37.5h74.625v-37.5z"/>
  <path d="m1018.9 60v37.5l84-0.375-0.375 84h37.5v-121.12z"/>
  <path d="m758.25 60v37.5h74.25v-37.5z"/>
  <path d="m1140 236.62h-37.5v74.625h37.5z"/>
  <path d="m1140 627.75h-37.5v74.625h37.5z"/>
  <path d="m1140 497.62h-37.5v74.25h37.5z"/>
  <path d="m1140 367.12h-37.5v74.625h37.5z"/>
  <path d="m1140 888.38h-37.5v74.625h37.5z"/>
  <path d="m1140 1018.9h-37.5l0.375 84-84-0.375v37.5h121.12z"/>
  <path d="m1140 758.25h-37.5v74.25h37.5z"/>
  <path d="m60 236.62h37.5v74.625h-37.5z"/>
  <path d="m60 627.75h37.5v74.625h-37.5z"/>
  <path d="m60 497.62h37.5v74.25h-37.5z"/>
  <path d="m60 367.12h37.5v74.625h-37.5z"/>
  <path d="m60 888.38h37.5v74.625h-37.5z"/>
  <path d="m60 1018.9h37.5l-0.375 84 84-0.375v37.5h-121.12z"/>
  <path d="m60 758.25h37.5v74.25h-37.5z"/>
  <path d="m236.62 1140v-37.5h74.625v37.5z"/>
  <path d="m627.75 1140v-37.5h74.625v37.5z"/>
  <path d="m497.62 1140v-37.5h74.25v37.5z"/>
  <path d="m367.12 1140v-37.5h74.625v37.5z"/>
  <path d="m888.38 1140v-37.5h74.625v37.5z"/>
  <path d="m758.25 1140v-37.5h74.25v37.5z"/>
 </g>
</svg>
