<svg height='100px' width='100px'  fill="#FFFFFF" xmlns="http://www.w3.org/2000/svg" xmlns:xlink="http://www.w3.org/1999/xlink" version="1.1" x="0px" y="0px" viewBox="0 0 100 100" style="enable-background:new 0 0 100 100;" xml:space="preserve"><style type="text/css">
	.st0{fill-rule:evenodd;clip-rule:evenodd;}
</style><g><path class="st0" d="M71.118,58.877l-0.56,1.234l-0.632,1.199l-0.701,1.159l-0.769,1.116l-0.834,1.068l-0.895,1.017l-0.954,0.962   l-1.009,0.904l-1.061,0.843l-1.109,0.779l-1.153,0.712l-1.193,0.642l-1.229,0.57l-1.261,0.497l-1.288,0.421l-1.311,0.344   l-1.329,0.266l-0.172,0.065l-0.135,0.125l-0.077,0.167l-0.008,0.184l0.281,1.887l0.064,0.177l0.128,0.139l0.171,0.078l0.188,0.006   l1.417-0.28l1.399-0.358l1.377-0.436l1.35-0.513l1.319-0.588l1.284-0.661l1.245-0.732l1.202-0.8l1.156-0.866l1.105-0.93l1.051-0.99   l0.994-1.048l0.934-1.102l0.871-1.152l0.805-1.199l0.736-1.243l0.665-1.282l0.593-1.317l0.037-0.185l-0.038-0.185l-0.106-0.155   l-0.158-0.102l-1.775-0.7l-0.181-0.033l-0.18,0.038l-0.152,0.103L71.118,58.877 M27.163,61.955l0.704,1.261l0.773,1.22l0.84,1.174   l0.905,1.126l0.967,1.073l1.025,1.017l1.081,0.958l1.133,0.896l1.181,0.831l1.226,0.764l1.267,0.694l1.304,0.622l1.336,0.548   l1.365,0.472l1.389,0.395l1.409,0.316l1.425,0.237l1.436,0.156l0.187-0.022l0.164-0.093l0.115-0.149l0.048-0.182l0.118-1.905   l-0.024-0.182l-0.091-0.159l-0.145-0.113l-0.177-0.05l-1.347-0.151l-1.335-0.23l-1.319-0.309l-1.299-0.386l-1.274-0.463   l-1.244-0.537l-1.21-0.61l-1.172-0.68l-1.13-0.749l-1.083-0.814l-1.033-0.877l-0.98-0.936l-0.923-0.993l-0.862-1.045l-0.799-1.095   l-0.733-1.14l-0.664-1.181l-0.115-0.143l-0.161-0.089l-0.182-0.022l-0.177,0.049l-1.708,0.85l-0.149,0.115l-0.092,0.164   l-0.022,0.187L27.163,61.955 M31.612,32.007l-0.982,1.059l-0.921,1.112l-0.857,1.162l-0.791,1.208L27.339,37.8l-0.651,1.289   l-0.577,1.324l-0.502,1.354l-0.426,1.38l-0.348,1.402l-0.268,1.419l-0.188,1.432l-0.108,1.44l-0.027,1.444l0.054,1.443l0.135,1.438   l0.215,1.428l0.295,1.414l0.079,0.171l0.139,0.127l0.177,0.063l0.188-0.01l1.848-0.477l0.166-0.079l0.123-0.136l0.063-0.173   l-0.007-0.184l-0.273-1.327l-0.194-1.341l-0.114-1.35l-0.034-1.355l0.047-1.354l0.126-1.349l0.206-1.339l0.285-1.325l0.363-1.306   l0.439-1.282l0.515-1.254l0.588-1.221l0.659-1.184l0.728-1.143l0.794-1.098l0.858-1.049l0.918-0.996l0.101-0.154l0.035-0.18   l-0.036-0.18l-0.101-0.153l-1.337-1.362l-0.156-0.106l-0.185-0.037l-0.185,0.037L31.612,32.007 M75.473,53.827l0.172-1.434   l0.091-1.441l0.01-1.444l-0.07-1.442l-0.151-1.436l-0.231-1.425l-0.311-1.41l-0.39-1.391l-0.467-1.367l-0.543-1.338l-0.617-1.306   l-0.689-1.269l-0.759-1.229l-0.827-1.184L69.8,33.574l-0.954-1.084l-1.013-1.029l-1.07-0.97l-0.164-0.092l-0.187-0.021   l-0.181,0.053l-0.146,0.119l-1.215,1.472l-0.087,0.162l-0.02,0.183l0.051,0.177l0.114,0.144l1.001,0.914l0.945,0.971l0.886,1.025   l0.824,1.076l0.758,1.123l0.691,1.166l0.62,1.205l0.548,1.239l0.474,1.27l0.398,1.295l0.321,1.317l0.242,1.333l0.163,1.345   l0.083,1.353l0.003,1.355l-0.077,1.353l-0.157,1.346l0.009,0.183l0.077,0.167l0.135,0.125l0.172,0.065l1.882,0.316l0.188-0.006   l0.171-0.078l0.127-0.139L75.473,53.827 M61.469,26.983l-1.31-0.607l-1.343-0.532l-1.37-0.456l-1.394-0.379l-1.413-0.3l-1.427-0.22   l-1.437-0.14l-1.443-0.059l-1.444,0.022l-1.441,0.103l-1.433,0.183l-1.42,0.263l-1.403,0.342l-1.382,0.42l-1.356,0.497   l-1.326,0.573l-1.292,0.646l-1.253,0.717l-0.138,0.128l-0.078,0.171l-0.006,0.188l0.068,0.176l1.024,1.61l0.127,0.133l0.168,0.075   l0.184,0.006l0.172-0.063l1.178-0.669l1.216-0.599l1.249-0.525l1.278-0.451l1.302-0.374l1.322-0.297l1.337-0.218l1.348-0.138   l1.354-0.058l1.355,0.022l1.351,0.102l1.343,0.182l1.33,0.261l1.312,0.339l1.29,0.416l1.263,0.492l1.231,0.566l0.177,0.048   l0.182-0.022l0.16-0.089l0.115-0.143l0.882-1.692l0.052-0.181l-0.022-0.187l-0.092-0.164L61.469,26.983 M39.591,32.926   l-0.465,0.235l-0.496,0.16l-0.515,0.081l-0.521,0l-0.515-0.081l-0.496-0.16l0.044,0.519l-0.037,0.52l-0.118,0.508l-0.195,0.483   l-0.268,0.447l-0.334,0.4l-0.852,0.928l-0.792,0.98l-0.729,1.027l-0.663,1.071l-0.594,1.111L31.523,42.3l-0.45,1.177l-0.375,1.202   l-0.299,1.224l-0.222,1.24l-0.143,1.252l-0.064,1.258l0.015,1.26l0.094,1.256l0.173,1.248l0.251,1.234l0.08,0.515l-0.001,0.521   L30.5,56.202l-0.161,0.496l-0.237,0.464l-0.306,0.422l0.507,0.118l0.483,0.196l0.446,0.269l0.399,0.335l0.342,0.393l0.277,0.441   l0.619,1.097l0.687,1.056l0.752,1.011l0.814,0.962l0.873,0.908l0.928,0.852l0.98,0.792l1.028,0.729l1.071,0.663l1.111,0.594   l1.146,0.523l1.177,0.45l1.203,0.375l1.224,0.299l1.24,0.221l1.252,0.143l0.515,0.083l0.495,0.162l0.464,0.237l0.421,0.307   l0.369,0.368l0.307,0.421l0.269-0.446l0.336-0.399l0.393-0.342l0.442-0.276l0.479-0.204l0.505-0.127l1.235-0.25l1.217-0.327   l1.194-0.403l1.166-0.477l1.134-0.549l1.097-0.62l1.056-0.687l1.011-0.752l0.961-0.814l0.908-0.873l0.851-0.928l0.791-0.98   l0.728-1.028l0.662-1.072l0.593-1.111l0.522-1.146l0.238-0.464l0.307-0.421l0.369-0.368l0.422-0.306l0.464-0.237l0.495-0.162   l-0.341-0.394l-0.276-0.442l-0.203-0.48l-0.126-0.506l-0.046-0.519l0.035-0.52l0.144-1.252l0.065-1.258l-0.014-1.26l-0.093-1.256   l-0.172-1.248l-0.25-1.235l-0.327-1.217l-0.403-1.194l-0.477-1.166l-0.55-1.133l-0.62-1.097l-0.688-1.056l-0.753-1.01l-0.815-0.961   l-0.873-0.908l-0.929-0.851l-0.367-0.37l-0.305-0.422l-0.236-0.465l-0.161-0.496l-0.082-0.515l0-0.521l-0.48,0.203l-0.506,0.125   l-0.519,0.045l-0.52-0.036l-0.508-0.117l-0.483-0.194l-1.146-0.524L56.57,31.12l-1.202-0.376l-1.224-0.299l-1.24-0.222   l-1.252-0.143l-1.258-0.064l-1.26,0.015l-1.256,0.094l-1.248,0.173l-1.235,0.251l-1.216,0.328l-1.193,0.404l-1.166,0.478   l-1.133,0.55L39.591,32.926 M62.744,24.421l0.423,0.251l0.382,0.31l0.332,0.363l0.275,0.408l0.212,0.444l0.145,0.47l0.074,0.486   l0.002,0.492l-0.071,0.487l0.421-0.255l0.454-0.19l0.477-0.122l0.489-0.05l0.491,0.022l0.483,0.094l0.464,0.164l0.435,0.23   l0.396,0.292l1.127,1.02l1.072,1.078l1.013,1.134l0.951,1.186l0.887,1.235l0.82,1.28l0.751,1.322l0.68,1.36l0.606,1.394   l0.532,1.424l0.455,1.45l0.377,1.473l0.299,1.491l0.219,1.504l0.139,1.514l0.058,1.519l-0.022,1.52l-0.103,1.517l-0.183,1.509   l-0.108,0.48l-0.177,0.459l-0.243,0.428l-0.303,0.387l-0.357,0.339l-0.403,0.283l-0.44,0.22l-0.467,0.153l-0.485,0.083l0.372,0.321   l0.321,0.373l0.263,0.416l0.199,0.45l0.131,0.474l0.06,0.488l-0.013,0.492l-0.085,0.485l-0.155,0.467l-0.622,1.387l-0.694,1.352   l-0.765,1.314L73.5,66.37l-0.9,1.225l-0.964,1.176l-1.025,1.123l-1.083,1.067l-1.138,1.008l-1.19,0.946l-1.239,0.881l-1.284,0.814   l-1.325,0.745l-1.363,0.673l-1.397,0.6l-1.427,0.525L57.712,77.6l-1.474,0.371l-1.492,0.292l-0.49,0.046l-0.491-0.027l-0.482-0.099   l-0.462-0.168l-0.432-0.235l-0.393-0.295l-0.346-0.35l-0.29-0.397l-0.229-0.435l-0.191,0.453l-0.255,0.421l-0.314,0.379   l-0.366,0.328l-0.411,0.271l-0.446,0.208l-0.472,0.14l-0.487,0.069l-0.492-0.003l-1.512-0.162l-1.501-0.243l-1.486-0.322   l-1.467-0.4l-1.443-0.478l-1.416-0.553l-1.384-0.628L36.14,75.08l-1.31-0.771l-1.267-0.84l-1.221-0.906l-1.171-0.969l-1.118-1.03   l-1.062-1.088l-1.002-1.143l-0.94-1.195l-0.875-1.243l-0.808-1.288l-0.739-1.329l-0.195-0.452l-0.126-0.475l-0.055-0.489   l0.017-0.492l0.09-0.484l0.16-0.465l0.226-0.437l0.288-0.399l0.343-0.352l-0.49-0.041l-0.479-0.113l-0.457-0.182l-0.425-0.247   l-0.384-0.307l-0.335-0.36l-0.279-0.405l-0.216-0.442l-0.149-0.469l-0.313-1.488l-0.233-1.502l-0.153-1.513l-0.073-1.518   l0.008-1.52l0.089-1.518l0.169-1.511l0.249-1.5l0.329-1.484l0.407-1.465l0.484-1.441l0.56-1.413l0.634-1.382l0.707-1.346   l0.777-1.306l0.846-1.263l0.911-1.217l0.975-1.167l1.035-1.113l0.369-0.325l0.413-0.267l0.448-0.204l0.473-0.135l0.488-0.064   l0.492,0.008l0.485,0.08l0.468,0.151l0.441,0.218l-0.112-0.479l-0.041-0.49l0.032-0.491l0.103-0.481l0.173-0.461l0.239-0.43   l0.299-0.39l0.354-0.342l0.4-0.286l1.318-0.757l1.357-0.686l1.391-0.613l1.422-0.538l1.448-0.462l1.471-0.384l1.489-0.306   l1.503-0.226l1.513-0.146l1.519-0.066l1.52,0.015l1.517,0.096l1.51,0.176l1.499,0.256l1.483,0.336l1.463,0.414l1.439,0.491   l1.411,0.567L62.744,24.421"></path></g></svg>