<svg height='100px' width='100px'  fill="#FFFFFF" xmlns="http://www.w3.org/2000/svg" xmlns:xlink="http://www.w3.org/1999/xlink" version="1.1" x="0px" y="0px" viewBox="0 0 96 96" style="enable-background:new 0 0 96 96;" xml:space="preserve"><style type="text/css">
	.st0{fill:none;stroke:#FFFFFF;stroke-width:2;stroke-miterlimit:10;}
</style><g><g><path d="M17.7,74.5c-0.3,0-0.5-0.1-0.7-0.3c-0.3-0.3-0.4-0.7-0.2-1.1l11.3-25L16.8,23c-0.2-0.4-0.1-0.8,0.2-1.1    c0.3-0.3,0.7-0.4,1.1-0.2l59.4,25.5c0.4,0.2,0.6,0.5,0.6,0.9s-0.2,0.8-0.6,0.9L18.1,74.4C18,74.4,17.9,74.5,17.7,74.5z M19.7,24.5    l10.4,23.1c0.1,0.3,0.1,0.6,0,0.8L19.7,71.5L74.6,48L19.7,24.5z"></path></g></g></svg>