<svg height='100px' width='100px'  fill="#FFFFFF" xmlns="http://www.w3.org/2000/svg" xmlns:xlink="http://www.w3.org/1999/xlink" version="1.1" x="0px" y="0px" viewBox="0 0 96 96" style="enable-background:new 0 0 96 96;" xml:space="preserve"><style type="text/css">
	.st0{fill:none;stroke:#FFFFFF;stroke-width:2;stroke-miterlimit:10;}
</style><g><g><path d="M73.5,78.7c-0.1,0-0.3,0-0.4-0.1L48,67.3L23,78.6c-0.4,0.2-0.8,0.1-1.1-0.2c-0.3-0.3-0.4-0.7-0.2-1.1l25.5-59.4    c0.2-0.4,0.5-0.6,0.9-0.6s0.8,0.2,0.9,0.6l25.5,59.4c0.2,0.4,0.1,0.8-0.2,1.1C74,78.6,73.7,78.7,73.5,78.7z M48,65.2    c0.1,0,0.3,0,0.4,0.1l23.1,10.4L48,20.8L24.5,75.7l23.1-10.4C47.7,65.2,47.9,65.2,48,65.2z"></path></g></g></svg>