<svg height='100px' width='100px'  fill="#FFFFFF" xmlns="http://www.w3.org/2000/svg" xmlns:xlink="http://www.w3.org/1999/xlink" version="1.1" x="0px" y="0px" viewBox="0 0 100 100" style="enable-background:new 0 0 100 100;" xml:space="preserve"><path d="M89.6,48.2L12,14.9c-0.6-0.3-1.3-0.2-1.9,0.2c-0.6,0.4-0.9,1-0.9,1.7v66.5c0,0.7,0.3,1.3,0.9,1.7c0.3,0.2,0.7,0.3,1.1,0.3  c0.3,0,0.5-0.1,0.8-0.2l77.6-33.2c0.7-0.3,1.2-1,1.2-1.8S90.3,48.5,89.6,48.2z M13.2,80.2V52h34.5c1.1,0,2-0.9,2-2s-0.9-2-2-2H13.2  V19.8L83.7,50L13.2,80.2z"></path></svg>