<?xml version="1.0" encoding="UTF-8"?>
<svg width="1200pt" height="1200pt" version="1.1" viewBox="0 0 1200 1200" xmlns="http://www.w3.org/2000/svg">
 <g fill="#fff">
  <path d="m1095.2 1097.5h-78v-36h42v-42h36z"/>
  <path d="m828.76 1097.5h-134.56v-36h134.57l0.003906 36zm-322.96 0h-134.56v-36h134.56z"/>
  <path d="m182.84 1097.5h-78v-78h36v42h42z"/>
  <path d="m140.84 830.03h-36v-135.3h36zm0-324.74h-36v-135.31h36z"/>
  <path d="m140.84 180.54h-36v-78h78v36h-42z"/>
  <path d="m828.76 138.54h-134.56v-36h134.57l0.003906 36zm-322.96 0h-134.56v-36h134.56z"/>
  <path d="m1095.2 180.54h-36v-42h-42v-36h78z"/>
  <path d="m1095.2 830.03h-36v-135.31h36zm0-324.74h-36v-135.31h36z"/>
 </g>
</svg>
