<?xml version="1.0" encoding="UTF-8"?>
<svg width="1200pt" height="1200pt" version="1.1" viewBox="0 0 1200 1200" xmlns="http://www.w3.org/2000/svg">
 <path d="m954 126h-120v48h120zm-144 0h-120v48h120zm-144 0h-120v48h120zm-144 0h-120v48h120zm-144 0h-120v48h120zm-144 0h-108v156h48v-108h60zm-60 180h-48v120h48zm0 144h-48v120h48zm0 144h-48v120h48zm0 144h-48v120h48zm0 144h-48v120h48zm24 144h-72v48h72zm144 0h-120v48h120zm144 0h-120v48h120zm144 0h-120v48h120zm144 0h-120v48h120zm144 0h-120v48h120zm156-84h-48v84h-84v48h120v-12h12zm0-144h-48v120h48zm0-144h-48v120h48zm0-144h-48v120h48zm0-144h-48v120h48zm0-144h-48v120h48zm0-96h-96v48h48v24h48z" fill="#fff"/>
</svg>
