<?xml version="1.0" encoding="UTF-8"?>
<svg width="1200pt" height="1200pt" version="1.1" viewBox="0 0 1200 1200" xmlns="http://www.w3.org/2000/svg">
 <path d="m828.84 516c5.5-3.1875 9.5156-8.4258 11.156-14.566 1.6445-6.1445 0.78125-12.688-2.3945-18.195l-18-31.199c-3.3047-5.3789-8.5977-9.2383-14.73-10.746-6.1328-1.5039-12.609-0.53125-18.031 2.707l-124.08 72c-11.398 6.6016-20.762 1.1992-20.762-12v-144c0-6.3633-2.5273-12.469-7.0312-16.969-4.5-4.5039-10.605-7.0312-16.969-7.0312h-36c-6.3633 0-12.469 2.5273-16.969 7.0312-4.5039 4.5-7.0312 10.605-7.0312 16.969v143.28c0 13.199-9.3594 18.602-20.762 12l-124.08-71.281c-5.5078-3.1758-12.051-4.0391-18.191-2.3945-6.1445 1.6406-11.383 5.6523-14.57 11.156l-18 31.199c-2.9531 5.4375-3.6875 11.809-2.0547 17.781 1.6289 5.9688 5.5078 11.078 10.816 14.258l124.08 72c5.0938 1.7891 8.5039 6.6016 8.5039 12s-3.4102 10.211-8.5039 12l-124.08 72c-5.5 3.1875-9.5156 8.4258-11.156 14.566-1.6445 6.1445-0.78125 12.688 2.3945 18.195l18 31.199c3.1875 5.5 8.4258 9.5117 14.57 11.156 6.1406 1.6406 12.684 0.78125 18.191-2.3984l124.08-72c11.398-6.6016 20.762-1.1992 20.762 12v143.28c0 6.3633 2.5273 12.469 7.0312 16.969 4.5 4.5039 10.605 7.0312 16.969 7.0312h36c6.3633 0 12.469-2.5273 16.969-7.0312 4.5039-4.5 7.0312-10.605 7.0312-16.969v-143.28c0-13.199 9.3594-18.602 20.762-12l124.08 72c5.5078 3.1797 12.051 4.0391 18.191 2.3984 6.1445-1.6445 11.383-5.6562 14.57-11.156l18-31.199c3.1758-5.5078 4.0391-12.051 2.3945-18.195-1.6406-6.1406-5.6562-11.379-11.156-14.566l-124.08-72c-5.0938-1.7891-8.5039-6.6016-8.5039-12s3.4102-10.211 8.5039-12z" fill="#fff"/>
</svg>
