<svg height='100px' width='100px'  fill="#FFFFFF" xmlns="http://www.w3.org/2000/svg" xmlns:xlink="http://www.w3.org/1999/xlink" version="1.1" x="0px" y="0px" viewBox="0 0 100 100" enable-background="new 0 0 100 100" xml:space="preserve"><path fill-rule="evenodd" clip-rule="evenodd" d="M44.9677734,14.4423828h10.0644531  c2.3984375,0,4.3603516,1.9619141,4.3603516,4.3613281v21.8037109h21.8037109c2.3984375,0,4.3613281,1.9619141,4.3613281,4.3613281  v10.0625c0,2.3994141-1.9628906,4.3613281-4.3613281,4.3613281H59.3925781v21.8037109  c0,2.3994141-1.9619141,4.3613281-4.3603516,4.3613281H44.9677734c-2.3984375,0-4.3603516-1.9619141-4.3603516-4.3613281V59.3925781  H18.8037109c-2.3984375,0-4.3613281-1.9619141-4.3613281-4.3613281v-10.0625c0-2.3994141,1.9628906-4.3613281,4.3613281-4.3613281  h21.8037109V18.8037109C40.6074219,16.4042969,42.5693359,14.4423828,44.9677734,14.4423828z"></path></svg>