<svg height='100px' width='100px'  fill="#FFFFFF" xmlns="http://www.w3.org/2000/svg" viewBox="0 0 70 70" x="0px" y="0px"><path fill="#FFFFFF" d="M590.414214,243.414214 C589.633165,244.195262 588.366835,244.195262 587.585786,243.414214 C586.804738,242.633165 586.804738,241.366835 587.585786,240.585786 L600.585786,227.585786 C601.366835,226.804738 602.633165,226.804738 603.414214,227.585786 C604.195262,228.366835 604.195262,229.633165 603.414214,230.414214 L590.414214,243.414214 Z M539.414214,192.414214 C538.633165,193.195262 537.366835,193.195262 536.585786,192.414214 C535.804738,191.633165 535.804738,190.366835 536.585786,189.585786 L549.585786,176.585786 C550.366835,175.804738 551.633165,175.804738 552.414214,176.585786 C553.195262,177.366835 553.195262,178.633165 552.414214,179.414214 L539.414214,192.414214 Z M539.414214,227.585786 L552.414214,240.585786 C554.299832,242.471405 551.471405,245.299832 549.585786,243.414214 L536.585786,230.414214 C534.700168,228.528595 537.528595,225.700168 539.414214,227.585786 Z M590.414214,176.585786 L603.414214,189.585786 C605.299832,191.471405 602.471405,194.299832 600.585786,192.414214 L587.585786,179.414214 C585.700168,177.528595 588.528595,174.700168 590.414214,176.585786 Z M561,192 L579,192 C581.666667,192 581.666667,196 579,196 L561,196 C558.333333,196 558.333333,192 561,192 Z M561,224 L579,224 C581.666667,224 581.666667,228 579,228 L561,228 C558.333333,228 558.333333,224 561,224 Z M552,219 L552,201 C552,198.333333 556,198.333333 556,201 L556,219 C556,221.666667 552,221.666667 552,219 Z M584,219 L584,201 C584,198.333333 588,198.333333 588,201 L588,219 C588,221.666667 584,221.666667 584,219 Z" transform="translate(-535 -175)"></path></svg>