<svg height='100px' width='100px'  fill="#FFFFFF" xmlns="http://www.w3.org/2000/svg" xmlns:xlink="http://www.w3.org/1999/xlink" version="1.1" x="0px" y="0px" viewBox="0 0 100 100" style="enable-background:new 0 0 100 100;" xml:space="preserve"><style type="text/css">
	.st0{fill-rule:evenodd;clip-rule:evenodd;}
</style><g><polyline class="st0" points="67.205,14.951 67.415,15.091 67.581,15.282 67.691,15.51 67.738,15.759 67.717,16.011 67.631,16.249    66.896,17.659 66.756,17.86 66.569,18.018 66.348,18.124 66.108,18.17 65.863,18.153 65.631,18.075 64.098,17.371 62.534,16.74    60.941,16.183 59.323,15.703 57.685,15.3 56.029,14.975 54.36,14.729 52.681,14.562 50.996,14.475 49.309,14.468 47.623,14.541    45.943,14.693 44.272,14.925 42.614,15.236 40.972,15.625 39.35,16.091 37.753,16.633 36.183,17.251 34.644,17.942 33.139,18.706    31.672,19.54 31.448,19.638 31.206,19.675 30.962,19.65 30.733,19.564 30.533,19.422 30.376,19.234 29.523,17.892 29.416,17.663    29.374,17.413 29.399,17.161 29.489,16.925 29.638,16.721 29.836,16.563 31.375,15.683 32.952,14.875 34.565,14.138 36.209,13.476    37.881,12.889 39.578,12.378 41.297,11.944 43.034,11.589 44.785,11.313 46.546,11.116 48.315,11 50.087,10.964 51.859,11.008    53.628,11.132 55.388,11.336 57.138,11.62 58.873,11.983 60.59,12.424 62.285,12.943 63.955,13.538 65.596,14.208 67.205,14.951     "></polyline><polyline class="st0" points="62.82,24.133 61.431,23.492 60.011,22.925 58.563,22.434 57.091,22.021 55.599,21.685 54.092,21.429    52.573,21.253 51.047,21.157 49.518,21.142 47.99,21.208 46.468,21.355 44.956,21.582 43.458,21.888 41.978,22.273 40.521,22.735    39.09,23.274 37.689,23.888 36.323,24.575 34.995,25.333 34.814,25.408 34.618,25.424 34.427,25.379 34.259,25.278 34.129,25.131    33.104,23.521 33.025,23.336 33.007,23.135 33.052,22.939 33.157,22.767 33.31,22.636 34.712,21.831 36.153,21.098 37.628,20.438    39.135,19.853 40.67,19.344 42.228,18.914 43.805,18.562 45.399,18.29 47.004,18.099 48.617,17.989 50.233,17.96 51.848,18.012    53.459,18.146 55.061,18.36 56.651,18.655 58.223,19.029 59.775,19.482 61.302,20.013 62.8,20.62 64.266,21.301 64.43,21.418    64.549,21.581 64.612,21.772 64.611,21.974 64.547,22.165 63.665,23.857 63.549,24.015 63.39,24.13 63.203,24.191 63.007,24.192    62.82,24.133  "></polyline><polyline class="st0" points="60.166,29.56 58.934,28.995 57.671,28.503 56.382,28.087 55.07,27.748 53.74,27.487 52.397,27.306    51.046,27.204 49.691,27.182 48.337,27.24 46.989,27.379 45.652,27.596 44.33,27.893 43.027,28.267 41.75,28.718 40.501,29.244    39.285,29.842 38.107,30.512 37.934,30.575 37.751,30.569 37.583,30.493 37.456,30.36 36.432,28.75 36.364,28.575 36.37,28.386    36.448,28.215 36.586,28.087 37.839,27.37 39.131,26.724 40.457,26.151 41.813,25.654 43.194,25.234 44.598,24.891 46.017,24.628    47.45,24.445 48.891,24.342 50.335,24.32 51.778,24.379 53.215,24.519 54.642,24.74 56.055,25.04 57.449,25.419 58.819,25.875    60.161,26.407 61.472,27.014 61.621,27.129 61.713,27.293 61.735,27.48 61.682,27.661 60.8,29.353 60.686,29.497 60.525,29.586    60.343,29.609 60.166,29.56  "></polyline><polyline class="st0" points="21.914,22.857 22.112,22.701 22.345,22.602 22.596,22.567 22.846,22.6 23.08,22.697 23.279,22.853    24.393,23.988 24.541,24.183 24.634,24.41 24.667,24.653 24.636,24.895 24.545,25.123 24.399,25.319 23.255,26.559 22.171,27.853    21.15,29.196 20.193,30.586 19.304,32.019 18.483,33.493 17.733,35.005 17.056,36.55 16.452,38.126 15.924,39.728 15.472,41.354    15.098,42.999 14.802,44.66 14.585,46.333 14.448,48.015 14.39,49.701 14.413,51.388 14.515,53.072 14.697,54.749 14.958,56.416    15.297,58.069 15.321,58.313 15.282,58.554 15.183,58.778 15.03,58.97 14.834,59.116 14.606,59.207 13.066,59.604 12.815,59.634    12.565,59.597 12.333,59.496 12.136,59.337 11.988,59.132 11.899,58.896 11.538,57.16 11.256,55.41 11.054,53.649 10.932,51.881    10.891,50.109 10.929,48.337 11.048,46.568 11.247,44.806 11.525,43.056 11.883,41.32 12.319,39.602 12.832,37.905 13.421,36.233    14.086,34.59 14.824,32.979 15.635,31.402 16.516,29.864 17.467,28.368 18.483,26.916 19.565,25.512 20.709,24.158 21.914,22.857     "></polyline><polyline class="st0" points="29.291,29.865 28.253,30.988 27.275,32.163 26.36,33.389 25.512,34.661 24.732,35.976 24.023,37.33    23.386,38.721 22.823,40.142 22.336,41.592 21.927,43.065 21.596,44.558 21.344,46.066 21.173,47.586 21.081,49.112 21.071,50.641    21.141,52.169 21.292,53.69 21.524,55.202 21.834,56.699 21.849,56.895 21.804,57.086 21.702,57.253 21.554,57.382 21.374,57.46    19.526,57.937 19.326,57.956 19.129,57.911 18.957,57.807 18.826,57.654 18.749,57.468 18.416,55.886 18.164,54.289 17.992,52.682    17.901,51.068 17.892,49.452 17.964,47.837 18.117,46.227 18.351,44.628 18.665,43.042 19.058,41.475 19.53,39.928 20.079,38.408    20.704,36.917 21.403,35.46 22.175,34.04 23.017,32.66 23.927,31.324 24.904,30.036 25.944,28.798 27.045,27.615 27.207,27.495    27.398,27.432 27.6,27.432 27.791,27.494 27.953,27.614 29.29,28.976 29.404,29.135 29.464,29.322 29.465,29.518 29.405,29.706    29.291,29.865  "></polyline><polyline class="st0" points="33.633,34.067 32.714,35.063 31.857,36.112 31.062,37.21 30.334,38.353 29.675,39.537 29.088,40.758    28.573,42.012 28.134,43.293 27.771,44.599 27.486,45.924 27.28,47.263 27.154,48.612 27.107,49.967 27.141,51.321 27.255,52.671    27.448,54.013 27.721,55.34 27.728,55.523 27.665,55.696 27.542,55.832 27.376,55.911 25.528,56.388 25.34,56.398 25.163,56.335    25.024,56.208 24.945,56.037 24.65,54.623 24.435,53.195 24.3,51.757 24.246,50.314 24.273,48.87 24.381,47.43 24.57,45.998    24.838,44.579 25.186,43.177 25.611,41.797 26.113,40.443 26.691,39.119 27.341,37.83 28.063,36.579 28.854,35.371 29.711,34.209    30.632,33.096 31.614,32.037 31.77,31.932 31.955,31.895 32.139,31.932 32.295,32.037 33.632,33.399 33.733,33.552 33.769,33.733    33.733,33.913 33.633,34.067  "></polyline><polyline class="st0" points="15.437,68.375 15.35,68.138 15.327,67.886 15.372,67.637 15.481,67.408 15.646,67.217 15.855,67.075    17.279,66.366 17.51,66.286 17.754,66.267 17.995,66.312 18.217,66.416 18.405,66.573 18.546,66.772 19.373,68.244 20.268,69.674    21.229,71.06 22.256,72.399 23.344,73.688 24.493,74.924 25.698,76.105 26.959,77.226 28.27,78.287 29.631,79.285 31.038,80.217    32.487,81.081 33.975,81.876 35.499,82.599 37.056,83.249 38.642,83.825 40.253,84.326 41.887,84.749 43.538,85.094 45.204,85.361    46.881,85.548 47.12,85.601 47.338,85.713 47.52,85.876 47.655,86.081 47.733,86.313 47.749,86.557 47.651,88.145 47.603,88.393    47.49,88.619 47.322,88.809 47.11,88.947 46.87,89.024 46.617,89.036 44.855,88.843 43.103,88.57 41.366,88.218 39.647,87.787    37.948,87.28 36.275,86.695 34.63,86.036 33.016,85.302 31.437,84.497 29.896,83.62 28.397,82.675 26.942,81.662 25.534,80.585    24.177,79.445 22.872,78.245 21.624,76.987 20.433,75.673 19.304,74.307 18.237,72.892 17.236,71.429 16.302,69.922 15.437,68.375     "></polyline><polyline class="st0" points="24.382,63.524 25.128,64.859 25.944,66.152 26.827,67.4 27.775,68.6 28.785,69.749 29.854,70.842    30.979,71.877 32.157,72.852 33.386,73.762 34.66,74.607 35.978,75.383 37.334,76.089 38.726,76.721 40.15,77.28 41.601,77.762    43.075,78.167 44.569,78.494 46.078,78.741 47.598,78.908 47.789,78.954 47.956,79.057 48.084,79.205 48.161,79.386 48.18,79.581    48.062,81.486 48.018,81.682 47.915,81.855 47.762,81.987 47.576,82.065 47.376,82.08 45.768,81.908 44.172,81.654 42.59,81.321    41.027,80.909 39.487,80.418 37.973,79.851 36.49,79.208 35.041,78.491 33.63,77.702 32.261,76.844 30.936,75.917 29.66,74.925    28.435,73.87 27.265,72.755 26.153,71.582 25.101,70.355 24.112,69.076 23.188,67.75 22.333,66.378 21.547,64.965 21.483,64.774    21.482,64.573 21.545,64.381 21.664,64.218 21.827,64.101 23.536,63.25 23.723,63.191 23.919,63.192 24.106,63.252 24.265,63.367    24.382,63.524  "></polyline><polyline class="st0" points="29.719,60.693 30.383,61.875 31.116,63.015 31.914,64.109 32.777,65.155 33.699,66.147    34.679,67.084 35.712,67.96 36.795,68.774 37.925,69.523 39.097,70.203 40.307,70.813 41.551,71.35 42.824,71.813 44.123,72.2    45.443,72.508 46.778,72.739 48.125,72.89 48.301,72.94 48.446,73.053 48.537,73.212 48.561,73.394 48.444,75.299 48.396,75.481    48.28,75.63 48.117,75.723 47.93,75.745 46.494,75.589 45.069,75.352 43.66,75.036 42.271,74.641 40.906,74.169 39.57,73.622    38.266,73 36.999,72.306 35.774,71.542 34.593,70.711 33.46,69.815 32.379,68.857 31.354,67.84 30.388,66.767 29.483,65.641    28.643,64.467 27.869,63.247 27.166,61.986 27.113,61.805 27.135,61.618 27.227,61.454 27.376,61.338 29.084,60.488 29.261,60.439    29.444,60.461 29.604,60.55 29.719,60.693  "></polyline><polyline class="st0" points="56.726,88.6 56.473,88.61 56.227,88.554 56.004,88.434 55.82,88.26 55.688,88.044 55.618,87.801    55.384,86.228 55.379,85.983 55.437,85.745 55.554,85.53 55.721,85.351 55.929,85.221 56.162,85.148 57.817,84.817 59.454,84.408    61.069,83.921 62.66,83.359 64.222,82.722 65.753,82.012 67.248,81.23 68.704,80.378 70.119,79.458 71.488,78.472 72.809,77.423    74.079,76.312 75.294,75.142 76.453,73.916 77.553,72.636 78.591,71.306 79.564,69.928 80.471,68.505 81.31,67.041 82.079,65.539    82.775,64.002 82.899,63.791 83.073,63.618 83.285,63.496 83.521,63.431 83.766,63.428 84.003,63.488 85.483,64.072 85.703,64.195    85.884,64.372 86.012,64.59 86.078,64.834 86.078,65.087 86.011,65.331 85.282,66.947 84.482,68.529 83.61,70.072 82.669,71.575    81.661,73.033 80.589,74.444 79.453,75.805 78.257,77.113 77.003,78.365 75.693,79.56 74.33,80.694 72.918,81.765 71.458,82.771    69.955,83.709 68.41,84.579 66.828,85.378 65.211,86.104 63.563,86.756 61.887,87.333 60.186,87.833 58.465,88.256 56.726,88.6     "></polyline><polyline class="st0" points="54.876,78.594 56.376,78.297 57.858,77.921 59.318,77.467 60.753,76.936 62.157,76.33 63.527,75.652    64.859,74.901 66.15,74.082 67.396,73.195 68.593,72.244 69.738,71.231 70.828,70.159 71.86,69.03 72.831,67.849 73.738,66.618    74.579,65.341 75.351,64.021 76.053,62.662 76.682,61.269 76.784,61.101 76.933,60.974 77.114,60.897 77.31,60.88 77.501,60.923    79.276,61.623 79.45,61.726 79.582,61.878 79.661,62.063 79.677,62.264 79.63,62.46 78.969,63.935 78.235,65.375 77.429,66.777    76.554,68.136 75.611,69.449 74.604,70.713 73.534,71.925 72.405,73.082 71.219,74.18 69.979,75.217 68.688,76.19 67.35,77.098    65.969,77.936 64.546,78.704 63.087,79.4 61.595,80.022 60.073,80.567 58.526,81.035 56.957,81.425 55.371,81.735 55.169,81.737    54.978,81.676 54.814,81.558 54.697,81.394 54.636,81.202 54.355,79.315 54.356,79.118 54.417,78.932 54.532,78.773 54.69,78.657    54.876,78.594  "></polyline><polyline class="st0" points="53.834,72.644 55.162,72.377 56.473,72.033 57.761,71.611 59.021,71.114 60.25,70.544 61.444,69.902    62.597,69.19 63.706,68.411 64.767,67.568 65.776,66.664 66.73,65.701 67.625,64.684 68.459,63.616 69.227,62.5 69.929,61.341    70.561,60.142 71.12,58.908 71.223,58.755 71.375,58.653 71.555,58.615 71.735,58.648 73.51,59.349 73.669,59.451 73.775,59.606    73.812,59.791 73.776,59.976 73.183,61.293 72.518,62.574 71.782,63.817 70.977,65.016 70.107,66.169 69.173,67.27 68.179,68.318    67.128,69.308 66.023,70.238 64.867,71.104 63.665,71.905 62.42,72.636 61.135,73.297 59.816,73.884 58.466,74.397 57.089,74.833    55.69,75.192 54.274,75.471 54.085,75.465 53.914,75.387 53.787,75.248 53.723,75.071 53.442,73.184 53.45,73 53.527,72.834    53.662,72.709 53.834,72.644  "></polyline><polyline class="st0" points="88.72,55.582 88.651,55.826 88.521,56.043 88.339,56.218 88.117,56.339 87.87,56.397 87.618,56.389    86.049,56.125 85.815,56.054 85.606,55.926 85.438,55.748 85.319,55.534 85.26,55.296 85.263,55.051 85.459,53.376 85.576,51.692    85.612,50.006 85.569,48.319 85.446,46.636 85.244,44.961 84.962,43.298 84.602,41.649 84.164,40.02 83.649,38.413 83.059,36.833    82.395,35.282 81.658,33.764 80.85,32.283 79.973,30.841 79.028,29.443 78.019,28.092 76.946,26.789 75.813,25.539 74.622,24.344    73.376,23.207 73.213,23.024 73.103,22.805 73.051,22.566 73.063,22.321 73.136,22.087 73.266,21.88 74.278,20.653 74.464,20.481    74.688,20.364 74.935,20.31 75.188,20.323 75.428,20.401 75.639,20.54 76.951,21.732 78.208,22.983 79.406,24.289 80.544,25.647    81.62,27.057 82.63,28.513 83.574,30.014 84.448,31.555 85.252,33.135 85.983,34.75 86.64,36.396 87.223,38.071 87.728,39.769    88.156,41.489 88.506,43.227 88.777,44.979 88.968,46.741 89.079,48.51 89.109,50.283 89.06,52.054 88.93,53.822 88.72,55.582  "></polyline><polyline class="st0" points="78.632,54.249 78.813,52.731 78.913,51.205 78.932,49.676 78.871,48.148 78.729,46.626    78.507,45.113 78.205,43.614 77.824,42.133 77.366,40.674 76.831,39.242 76.222,37.84 75.539,36.471 74.784,35.141 73.961,33.853    73.071,32.61 72.116,31.415 71.099,30.273 70.024,29.186 68.893,28.157 68.766,28.008 68.69,27.827 68.673,27.631 68.717,27.44    68.817,27.271 70.032,25.799 70.183,25.666 70.368,25.587 70.569,25.57 70.765,25.616 70.937,25.722 72.136,26.806 73.278,27.949    74.362,29.149 75.384,30.401 76.342,31.703 77.233,33.052 78.055,34.444 78.806,35.875 79.484,37.343 80.087,38.842 80.614,40.371    81.063,41.923 81.434,43.497 81.725,45.087 81.936,46.689 82.066,48.301 82.114,49.916 82.082,51.533 81.967,53.145 81.772,54.75    81.712,54.942 81.594,55.105 81.431,55.224 81.239,55.286 81.038,55.284 79.156,54.968 78.97,54.906 78.811,54.79 78.696,54.632    78.634,54.446 78.632,54.249  "></polyline><polyline class="st0" points="72.65,53.402 72.808,52.056 72.885,50.703 72.882,49.348 72.799,47.996 72.636,46.651 72.394,45.317    72.074,44.001 71.676,42.705 71.202,41.436 70.654,40.197 70.033,38.992 69.343,37.826 68.584,36.703 67.76,35.627 66.875,34.602    65.93,33.63 64.929,32.717 64.815,32.572 64.765,32.396 64.785,32.213 64.872,32.052 66.087,30.58 66.233,30.461 66.414,30.408    66.601,30.429 66.765,30.521 67.835,31.492 68.848,32.521 69.802,33.605 70.694,34.741 71.521,35.925 72.28,37.153 72.969,38.422    73.586,39.728 74.129,41.066 74.596,42.433 74.986,43.824 75.297,45.234 75.528,46.659 75.679,48.096 75.75,49.538 75.739,50.982    75.648,52.424 75.476,53.858 75.412,54.035 75.285,54.173 75.113,54.252 74.925,54.258 73.043,53.942 72.871,53.877 72.737,53.752    72.659,53.586 72.65,53.402  "></polyline></g></svg>