<svg height='100px' width='100px'  fill="#FFFFFF" xmlns="http://www.w3.org/2000/svg" xmlns:xlink="http://www.w3.org/1999/xlink" version="1.1" x="0px" y="0px" viewBox="0 0 100 100" style="enable-background:new 0 0 100 100;" xml:space="preserve"><style type="text/css">
	.st0{fill-rule:evenodd;clip-rule:evenodd;}
</style><g><path class="st0" d="M70.165,83.51l0.197-0.158l0.149-0.204l0.09-0.236l0.025-0.252l-0.042-0.249l-0.106-0.23l-0.854-1.342   l-0.157-0.188l-0.2-0.142l-0.229-0.086l-0.244-0.025l-0.242,0.038l-0.224,0.098l-1.467,0.834l-1.505,0.763l-1.539,0.691   l-1.57,0.618l-1.598,0.542l-1.622,0.466l-1.642,0.389l-1.658,0.311l-1.671,0.232l-1.68,0.152l-1.686,0.073l-1.687-0.007   l-1.685-0.087l-1.679-0.167l-1.669-0.246l-1.656-0.325l-1.638-0.403l-1.618-0.48l-1.593-0.556l-1.565-0.631l-1.533-0.704   l-0.232-0.078l-0.244-0.017l-0.241,0.046l-0.221,0.106l-0.187,0.159l-0.14,0.201l-0.735,1.41l-0.086,0.238l-0.021,0.252   l0.046,0.249l0.11,0.228l0.166,0.191l0.21,0.14l1.609,0.743l1.641,0.67l1.67,0.595l1.695,0.519l1.717,0.441l1.735,0.363l1.75,0.284   l1.761,0.204l1.768,0.124l1.772,0.044l1.772-0.036l1.769-0.116l1.762-0.197l1.751-0.276l1.737-0.355l1.719-0.433l1.697-0.511   l1.673-0.587l1.644-0.663l1.612-0.736l1.577-0.809L70.165,83.51 M71.804,86.235l-1.591,0.911l-1.629,0.841l-1.664,0.77   l-1.696,0.697L63.5,90.077l-1.75,0.547l-1.772,0.471l-1.791,0.394l-1.806,0.316l-1.818,0.237l-1.826,0.158l-1.832,0.079l-1.833,0   l-1.832-0.08l-1.826-0.159l-1.818-0.238l-1.806-0.317l-1.79-0.395l-1.771-0.472l-1.75-0.548l-1.724-0.624l-1.695-0.698   l-1.663-0.771l-0.476-0.274l-0.436-0.335l-0.387-0.389l-0.332-0.437l-0.271-0.477l-0.206-0.509l-0.136-0.532l-0.065-0.545   l0.008-0.549l0.081-0.543l0.152-0.528l0.221-0.503l0.735-1.41l0.303-0.494l0.37-0.447l0.429-0.391l0.479-0.327l0.52-0.257   l0.551-0.181l0.571-0.102l0.58-0.021l0.577,0.06l0.563,0.14l0.538,0.217l1.467,0.672l1.498,0.598l1.526,0.523l1.551,0.446   l1.571,0.369l1.587,0.29l1.6,0.211l1.608,0.131l1.613,0.051l1.613-0.029l1.61-0.11l1.602-0.189l1.591-0.269l1.575-0.348   l1.556-0.426l1.533-0.502l1.506-0.578l1.476-0.652l1.441-0.725l1.404-0.796l0.517-0.263l0.549-0.188l0.57-0.109l0.579-0.028   l0.577,0.053l0.564,0.133l0.54,0.211l0.505,0.284l0.461,0.352l0.407,0.413l0.345,0.466l0.854,1.342l0.263,0.482l0.197,0.513   l0.127,0.534l0.056,0.546l-0.017,0.549l-0.09,0.542l-0.161,0.525l-0.229,0.499l-0.293,0.464L72.66,85.55l-0.405,0.371   L71.804,86.235"></path><path class="st0" d="M83.51,29.835l-0.158-0.198l-0.204-0.149l-0.236-0.09l-0.252-0.025l-0.249,0.042l-0.23,0.106l-1.342,0.854   l-0.188,0.157l-0.142,0.2l-0.086,0.229l-0.025,0.244l0.038,0.242l0.098,0.225l0.834,1.467l0.763,1.505l0.691,1.539l0.618,1.57   l0.542,1.598l0.466,1.622l0.389,1.642l0.311,1.658l0.232,1.671l0.152,1.68l0.073,1.686l-0.007,1.687l-0.087,1.685l-0.167,1.679   l-0.246,1.669l-0.325,1.656l-0.403,1.638l-0.48,1.618l-0.556,1.593l-0.631,1.565l-0.705,1.533l-0.078,0.232l-0.017,0.244   l0.046,0.24l0.106,0.221l0.159,0.187l0.201,0.14l1.41,0.735l0.238,0.086l0.252,0.021l0.249-0.046l0.228-0.11l0.191-0.166l0.14-0.21   l0.743-1.609l0.67-1.641l0.595-1.67l0.519-1.695l0.441-1.717l0.363-1.735l0.284-1.75l0.204-1.761l0.124-1.768l0.044-1.772   l-0.036-1.772l-0.117-1.769l-0.197-1.762l-0.276-1.751l-0.355-1.737l-0.433-1.719l-0.511-1.697l-0.587-1.672l-0.663-1.644   l-0.736-1.612l-0.809-1.577L83.51,29.835 M86.235,28.196l0.911,1.591l0.841,1.629l0.77,1.664l0.697,1.696l0.623,1.724l0.547,1.75   l0.471,1.772l0.394,1.791l0.316,1.806l0.237,1.818l0.158,1.827l0.079,1.832l0,1.833l-0.08,1.832l-0.159,1.826l-0.238,1.818   l-0.317,1.806l-0.395,1.79l-0.472,1.772L90.07,63.52l-0.624,1.724l-0.698,1.695l-0.771,1.664l-0.274,0.476l-0.335,0.436   l-0.389,0.387l-0.437,0.332l-0.478,0.271l-0.509,0.206l-0.532,0.136l-0.545,0.065l-0.549-0.008l-0.543-0.081l-0.528-0.152   l-0.503-0.221l-1.41-0.735l-0.494-0.303l-0.447-0.37l-0.391-0.429l-0.327-0.479l-0.257-0.52l-0.181-0.551l-0.102-0.571l-0.021-0.58   l0.06-0.577l0.14-0.563l0.217-0.538l0.672-1.467l0.598-1.499l0.523-1.526l0.446-1.55l0.369-1.571l0.29-1.587l0.211-1.6l0.131-1.608   l0.051-1.613l-0.029-1.613l-0.11-1.61l-0.189-1.602L81.834,43.8l-0.348-1.575l-0.426-1.556l-0.502-1.533l-0.578-1.506l-0.652-1.476   l-0.725-1.441l-0.796-1.403l-0.263-0.517l-0.188-0.549l-0.109-0.57l-0.028-0.579l0.053-0.578l0.133-0.564l0.211-0.54l0.284-0.505   l0.352-0.461l0.413-0.407l0.466-0.345l1.342-0.854l0.482-0.263l0.513-0.197l0.534-0.128l0.546-0.055l0.549,0.017l0.542,0.09   l0.525,0.161l0.499,0.229l0.464,0.294l0.421,0.352l0.371,0.405L86.235,28.196"></path><path class="st0" d="M29.835,16.489l-0.198,0.158l-0.149,0.204l-0.09,0.236l-0.025,0.252l0.042,0.249l0.106,0.23l0.854,1.342   l0.157,0.188l0.2,0.142l0.229,0.086l0.244,0.025l0.242-0.038l0.224-0.098l1.467-0.834l1.505-0.764l1.539-0.691l1.57-0.618   l1.598-0.542l1.622-0.466l1.642-0.389l1.658-0.311l1.671-0.232l1.68-0.153l1.686-0.073l1.687,0.007l1.685,0.087l1.679,0.167   l1.669,0.246l1.656,0.325l1.638,0.403l1.618,0.48l1.593,0.556l1.565,0.631l1.533,0.705l0.232,0.078l0.244,0.017l0.24-0.046   l0.221-0.106l0.187-0.159l0.14-0.201l0.735-1.41l0.086-0.238l0.021-0.252l-0.046-0.249l-0.11-0.228l-0.166-0.191l-0.21-0.14   l-1.609-0.743l-1.641-0.67l-1.67-0.595l-1.695-0.518l-1.717-0.441l-1.735-0.363l-1.75-0.284l-1.761-0.204l-1.768-0.124   l-1.772-0.044l-1.772,0.036l-1.769,0.116l-1.762,0.196l-1.751,0.276l-1.737,0.355l-1.719,0.434l-1.697,0.511l-1.673,0.587   l-1.644,0.662l-1.612,0.736l-1.577,0.809L29.835,16.489 M28.196,13.765l1.591-0.911l1.629-0.841l1.664-0.77l1.696-0.697L36.5,9.923   l1.75-0.547l1.772-0.471l1.791-0.394l1.806-0.316l1.818-0.237l1.827-0.158l1.832-0.079l1.833,0l1.832,0.08l1.826,0.159l1.818,0.238   l1.806,0.317l1.79,0.395l1.772,0.472L63.52,9.93l1.724,0.624l1.695,0.698l1.664,0.771l0.476,0.274l0.436,0.335l0.387,0.389   l0.332,0.437l0.271,0.478l0.206,0.509l0.136,0.532l0.065,0.545l-0.008,0.549l-0.081,0.543l-0.152,0.528l-0.221,0.503l-0.735,1.41   l-0.303,0.494l-0.37,0.447l-0.429,0.391l-0.479,0.327l-0.52,0.257l-0.551,0.181l-0.571,0.102l-0.58,0.021l-0.577-0.06l-0.563-0.14   l-0.538-0.217l-1.467-0.672l-1.499-0.598l-1.526-0.523l-1.55-0.446l-1.571-0.369l-1.587-0.29l-1.6-0.211l-1.608-0.131l-1.613-0.051   l-1.613,0.029l-1.61,0.11l-1.602,0.19L43.8,18.166l-1.575,0.348l-1.556,0.426l-1.533,0.502l-1.506,0.578l-1.476,0.652l-1.441,0.725   l-1.403,0.796l-0.517,0.263l-0.549,0.188l-0.57,0.109l-0.579,0.028l-0.578-0.053l-0.564-0.133l-0.54-0.211L28.906,22.1   l-0.461-0.352l-0.407-0.413l-0.345-0.466l-0.854-1.342l-0.264-0.482l-0.197-0.513l-0.128-0.534l-0.056-0.546l0.017-0.549   l0.09-0.542l0.161-0.525l0.229-0.499l0.294-0.464l0.352-0.421l0.405-0.371L28.196,13.765"></path><path class="st0" d="M16.489,70.165l0.158,0.197l0.204,0.149l0.236,0.09l0.252,0.025l0.249-0.042l0.23-0.106l1.342-0.854   l0.188-0.157l0.142-0.2l0.086-0.229l0.025-0.244l-0.038-0.242l-0.098-0.224l-0.834-1.467l-0.763-1.505l-0.691-1.539l-0.618-1.57   l-0.542-1.598l-0.466-1.622l-0.389-1.642l-0.311-1.658l-0.232-1.671l-0.153-1.68l-0.073-1.686l0.007-1.687l0.087-1.685l0.167-1.679   l0.246-1.669l0.325-1.656l0.403-1.638l0.48-1.618l0.556-1.593l0.631-1.565l0.705-1.533l0.078-0.232l0.017-0.244l-0.046-0.241   l-0.106-0.221l-0.159-0.187l-0.201-0.14l-1.41-0.735l-0.238-0.086l-0.252-0.021l-0.249,0.046l-0.228,0.11l-0.191,0.166l-0.14,0.21   l-0.744,1.609l-0.67,1.641l-0.595,1.67l-0.519,1.695l-0.441,1.717l-0.363,1.735l-0.284,1.75l-0.204,1.761l-0.124,1.768   l-0.044,1.772l0.036,1.772l0.116,1.769l0.197,1.762l0.276,1.751l0.355,1.737l0.434,1.719l0.511,1.697l0.587,1.673l0.663,1.644   l0.736,1.612l0.809,1.577L16.489,70.165 M13.765,71.804l-0.911-1.591l-0.841-1.629l-0.77-1.664l-0.697-1.696L9.923,63.5   l-0.547-1.75l-0.471-1.772l-0.394-1.791l-0.316-1.806l-0.237-1.818l-0.158-1.826L7.72,50.906l0-1.833l0.08-1.832l0.159-1.826   l0.238-1.818l0.317-1.806l0.395-1.79l0.472-1.772L9.93,36.48l0.624-1.724l0.698-1.695l0.771-1.663l0.274-0.476l0.335-0.436   l0.389-0.387l0.437-0.332l0.477-0.271l0.509-0.206l0.532-0.136l0.546-0.065l0.549,0.008l0.543,0.081l0.528,0.152l0.503,0.221   l1.41,0.735l0.494,0.303l0.447,0.37l0.391,0.429l0.327,0.479l0.257,0.52l0.181,0.551l0.102,0.571l0.021,0.58l-0.06,0.577   l-0.14,0.563l-0.217,0.538l-0.672,1.467l-0.598,1.498l-0.523,1.526l-0.446,1.551l-0.369,1.571l-0.29,1.587l-0.211,1.6l-0.131,1.608   l-0.051,1.613l0.029,1.613l0.11,1.61l0.19,1.602l0.269,1.591l0.348,1.575l0.426,1.556l0.502,1.533l0.578,1.506l0.652,1.476   l0.725,1.441l0.796,1.404l0.263,0.517l0.188,0.549l0.109,0.57l0.028,0.579l-0.053,0.577l-0.133,0.564l-0.211,0.54L22.1,71.094   l-0.352,0.461l-0.413,0.407l-0.466,0.345l-1.342,0.854l-0.482,0.263l-0.513,0.197l-0.534,0.127l-0.546,0.056l-0.549-0.017   l-0.542-0.09l-0.525-0.161l-0.499-0.229l-0.464-0.293L14.45,72.66l-0.371-0.405L13.765,71.804"></path></g></svg>