<svg height='100px' width='100px'  fill="#FFFFFF" xmlns="http://www.w3.org/2000/svg" xmlns:xlink="http://www.w3.org/1999/xlink" version="1.1" x="0px" y="0px" viewBox="0 0 100 100" style="enable-background:new 0 0 100 100;" xml:space="preserve"><style type="text/css">
	.st0{fill-rule:evenodd;clip-rule:evenodd;}
</style><g><path class="st0" d="M29.835,16.558l-0.198,0.158l-0.149,0.204l-0.09,0.236l-0.025,0.252l0.042,0.249l0.106,0.23l0.854,1.342   l0.157,0.188l0.2,0.142l0.229,0.086l0.244,0.025l0.242-0.038l0.224-0.098l1.467-0.834l1.505-0.764l1.539-0.691l1.57-0.618   l1.598-0.542l1.621-0.466l1.642-0.389l1.658-0.311l1.671-0.232l1.68-0.153l1.686-0.073l1.687,0.007l1.685,0.087l1.679,0.167   l1.669,0.246l1.656,0.325l1.638,0.403l1.618,0.48l1.593,0.556l1.565,0.631l1.533,0.705l0.232,0.078l0.244,0.017l0.24-0.046   l0.221-0.106l0.187-0.159l0.14-0.201l0.735-1.41l0.086-0.238l0.021-0.252l-0.046-0.249l-0.11-0.228l-0.166-0.191l-0.21-0.14   l-1.609-0.743l-1.641-0.67l-1.67-0.595L60.59,12.42l-1.717-0.441l-1.735-0.363l-1.75-0.284l-1.761-0.204l-1.768-0.124l-1.772-0.044   l-1.772,0.036l-1.769,0.116l-1.762,0.196l-1.751,0.276l-1.737,0.355l-1.719,0.434l-1.697,0.511l-1.673,0.587l-1.644,0.662   l-1.612,0.736l-1.577,0.809L29.835,16.558 M28.196,13.834l1.591-0.911l1.629-0.841l1.664-0.77l1.696-0.697L36.5,9.992l1.75-0.547   l1.772-0.471l1.791-0.394l1.806-0.316l1.818-0.237l1.827-0.158l1.832-0.079l1.833,0l1.832,0.08l1.826,0.159l1.818,0.238   l1.806,0.317L60,8.979l1.772,0.472l1.749,0.548l1.724,0.624l1.695,0.698l1.664,0.771l0.476,0.274l0.436,0.335l0.387,0.389   l0.332,0.437l0.271,0.478l0.206,0.509l0.136,0.532l0.065,0.545l-0.008,0.549l-0.081,0.543l-0.152,0.528l-0.221,0.503l-0.735,1.41   l-0.303,0.494l-0.37,0.447l-0.429,0.391l-0.479,0.327l-0.52,0.257l-0.551,0.181l-0.571,0.102l-0.58,0.021l-0.577-0.06l-0.563-0.14   l-0.538-0.217l-1.467-0.672l-1.499-0.598l-1.526-0.523l-1.55-0.446l-1.571-0.369l-1.587-0.29l-1.6-0.211l-1.608-0.131l-1.613-0.051   l-1.613,0.029l-1.61,0.11l-1.602,0.19L43.8,18.235l-1.575,0.348l-1.556,0.426l-1.533,0.502l-1.506,0.578l-1.476,0.652l-1.441,0.725   l-1.403,0.796l-0.517,0.263l-0.549,0.188l-0.57,0.109l-0.579,0.028l-0.578-0.053l-0.564-0.133l-0.54-0.211l-0.506-0.284   l-0.461-0.352l-0.407-0.413l-0.345-0.466l-0.854-1.342l-0.264-0.482L26.379,18.6l-0.128-0.534l-0.056-0.546l0.017-0.549l0.09-0.542   l0.161-0.525l0.229-0.499l0.294-0.464l0.352-0.421l0.405-0.371L28.196,13.834"></path><path class="st0" d="M11.899,58.891l0.089,0.237l0.148,0.205l0.197,0.159l0.232,0.101l0.25,0.037l0.251-0.03l1.54-0.397   l0.227-0.091l0.197-0.146l0.153-0.191l0.099-0.224l0.039-0.242l-0.024-0.244l-0.34-1.653l-0.261-1.667l-0.182-1.677l-0.102-1.684   l-0.022-1.687l0.058-1.686l0.137-1.682l0.217-1.673l0.296-1.661l0.374-1.645l0.452-1.626l0.528-1.602l0.603-1.576L17.733,35   l0.75-1.511l0.821-1.474l0.89-1.434l0.956-1.39l1.021-1.343l1.084-1.293l1.144-1.24l0.146-0.196l0.091-0.227l0.031-0.243   l-0.032-0.243l-0.093-0.227l-0.148-0.195l-1.114-1.135l-0.2-0.155l-0.233-0.098l-0.251-0.033l-0.251,0.034l-0.233,0.099   l-0.199,0.157l-1.204,1.301l-1.144,1.354l-1.082,1.404l-1.017,1.452l-0.95,1.496l-0.881,1.538l-0.811,1.576l-0.738,1.611   l-0.665,1.643l-0.59,1.672l-0.513,1.697l-0.436,1.718l-0.357,1.736l-0.279,1.751l-0.199,1.761l-0.119,1.769l-0.039,1.772   l0.042,1.772l0.122,1.768l0.202,1.761l0.282,1.75L11.899,58.891 M8.801,59.609l-0.375-1.795l-0.297-1.809l-0.218-1.82l-0.139-1.828   l-0.059-1.832l0.02-1.833l0.099-1.831l0.179-1.825l0.258-1.815l0.336-1.802l0.414-1.786l0.491-1.766l0.567-1.743l0.642-1.717   l0.716-1.688l0.788-1.655l0.859-1.619l0.929-1.581l0.996-1.539l1.062-1.494l1.126-1.447l1.188-1.397l1.247-1.344l0.408-0.368   l0.453-0.311l0.49-0.248l0.519-0.181l0.538-0.111l0.548-0.038l0.548,0.035l0.539,0.107l0.52,0.178l0.492,0.245l0.455,0.308   l0.41,0.366l1.114,1.135l0.376,0.441l0.311,0.49l0.239,0.528l0.163,0.557l0.083,0.574l0.002,0.58l-0.079,0.575l-0.159,0.558   l-0.235,0.53l-0.307,0.492l-0.373,0.444l-1.092,1.187l-1.032,1.24l-0.969,1.29l-0.904,1.337l-0.836,1.38l-0.766,1.42l-0.695,1.456   l-0.622,1.489l-0.547,1.518l-0.47,1.543l-0.393,1.565l-0.315,1.582l-0.236,1.596l-0.156,1.606l-0.076,1.612l0.004,1.613   l0.084,1.611l0.164,1.605l0.244,1.595l0.323,1.581l0.09,0.573l0.009,0.58l-0.072,0.576l-0.152,0.56l-0.229,0.533l-0.301,0.496   l-0.368,0.449l-0.427,0.393l-0.477,0.329l-0.519,0.259l-0.55,0.184l-1.54,0.397l-0.54,0.102l-0.549,0.029l-0.548-0.044   l-0.537-0.116l-0.517-0.186l-0.488-0.253l-0.45-0.315L9.83,61.522L9.479,61.1l-0.292-0.465l-0.227-0.5L8.801,59.609"></path><path class="st0" d="M46.617,89.032l0.253-0.012l0.241-0.078l0.212-0.138l0.168-0.189l0.113-0.227l0.049-0.248l0.098-1.587   l-0.016-0.244l-0.078-0.232l-0.135-0.205l-0.182-0.163l-0.218-0.112l-0.239-0.053l-1.677-0.188l-1.666-0.267l-1.652-0.345   l-1.633-0.423l-1.611-0.5l-1.586-0.576l-1.557-0.65l-1.524-0.723l-1.488-0.795l-1.449-0.864l-1.406-0.932l-1.361-0.998   l-1.312-1.061l-1.26-1.122l-1.206-1.18l-1.148-1.236l-1.089-1.289l-1.026-1.339l-0.962-1.386l-0.895-1.43l-0.826-1.471l-0.142-0.2   l-0.188-0.157l-0.222-0.104l-0.241-0.044l-0.244,0.019l-0.231,0.08l-1.424,0.709l-0.209,0.142l-0.165,0.192l-0.109,0.228   l-0.045,0.249l0.022,0.252l0.088,0.237l0.865,1.547l0.934,1.507l1.001,1.463l1.067,1.416l1.13,1.366l1.19,1.313l1.249,1.258   l1.304,1.2l1.357,1.14l1.408,1.077l1.455,1.012l1.499,0.945l1.541,0.876l1.579,0.806l1.614,0.733l1.645,0.659l1.674,0.584   l1.698,0.508l1.72,0.43l1.737,0.352l1.751,0.273L46.617,89.032 M46.342,92.2l-1.823-0.198l-1.812-0.277l-1.799-0.355l-1.782-0.433   l-1.761-0.51l-1.737-0.586l-1.71-0.66l-1.68-0.734l-1.647-0.806l-1.61-0.877l-1.571-0.946l-1.528-1.013l-1.483-1.078l-1.435-1.141   l-1.384-1.202l-1.331-1.261l-1.275-1.318l-1.216-1.372l-1.156-1.423l-1.093-1.472l-1.028-1.518L13.52,71.46l-0.893-1.601   l-0.224-0.501l-0.156-0.527l-0.085-0.543l-0.012-0.549l0.061-0.546l0.133-0.533l0.202-0.511l0.268-0.479l0.33-0.439l0.385-0.392   l0.434-0.337l0.474-0.277l1.424-0.709l0.536-0.221l0.562-0.144l0.576-0.064l0.58,0.017l0.572,0.098l0.552,0.177l0.522,0.253   l0.482,0.323l0.432,0.387l0.373,0.444l0.307,0.492l0.792,1.406l0.861,1.365l0.927,1.32l0.992,1.272l1.054,1.221l1.113,1.168   l1.17,1.111l1.224,1.051l1.275,0.989l1.322,0.924l1.367,0.857l1.408,0.789l1.445,0.717l1.479,0.645l1.509,0.57l1.536,0.495   l1.558,0.418l1.577,0.34l1.592,0.261l1.603,0.181l0.573,0.091l0.554,0.171l0.525,0.246l0.485,0.317l0.436,0.382l0.378,0.44   l0.313,0.488l0.242,0.527l0.165,0.556l0.086,0.574l0.005,0.58l-0.098,1.587l-0.07,0.545l-0.142,0.531l-0.211,0.507l-0.276,0.475   l-0.337,0.434l-0.391,0.385l-0.439,0.33l-0.479,0.269l-0.51,0.203l-0.533,0.134l-0.546,0.062L46.342,92.2"></path><path class="st0" d="M86.011,65.327l0.067-0.244l0-0.253l-0.066-0.244l-0.128-0.218l-0.181-0.177l-0.221-0.123l-1.479-0.584   l-0.237-0.06l-0.245,0.003l-0.236,0.065l-0.212,0.123l-0.174,0.173l-0.124,0.211l-0.697,1.537l-0.769,1.502l-0.839,1.464   l-0.907,1.423l-0.974,1.378l-1.038,1.33l-1.1,1.28l-1.159,1.226l-1.216,1.17l-1.27,1.111l-1.321,1.05l-1.369,0.986l-1.414,0.92   l-1.456,0.852l-1.495,0.782l-1.531,0.71l-1.562,0.637l-1.591,0.562l-1.616,0.486l-1.637,0.409l-1.654,0.331l-0.234,0.073   l-0.207,0.13l-0.168,0.179l-0.116,0.216l-0.058,0.238l0.005,0.245l0.234,1.573l0.07,0.243l0.132,0.216l0.184,0.174l0.223,0.119   l0.247,0.057l0.253-0.01l1.739-0.344l1.721-0.423l1.701-0.5l1.676-0.577l1.648-0.652l1.617-0.726l1.582-0.799l1.545-0.87   l1.504-0.939l1.46-1.006l1.412-1.071l1.363-1.134l1.31-1.194l1.254-1.253l1.196-1.308l1.136-1.361l1.073-1.411l1.008-1.458   l0.941-1.502l0.872-1.544l0.801-1.581L86.011,65.327 M88.938,66.567l-0.752,1.672l-0.823,1.638l-0.894,1.601l-0.962,1.561   l-1.029,1.517l-1.094,1.471l-1.156,1.423l-1.217,1.371l-1.275,1.317l-1.331,1.261l-1.385,1.202l-1.435,1.141l-1.484,1.077   l-1.529,1.012l-1.571,0.945l-1.611,0.876l-1.647,0.805l-1.68,0.733l-1.711,0.66l-1.738,0.585l-1.761,0.509l-1.782,0.432   l-1.799,0.354l-0.546,0.058l-0.549-0.015l-0.542-0.087l-0.526-0.158l-0.5-0.227l-0.466-0.291l-0.423-0.35l-0.373-0.403   l-0.316-0.449l-0.254-0.487l-0.187-0.517l-0.117-0.537l-0.234-1.573l-0.045-0.578l0.036-0.579l0.117-0.568l0.195-0.546l0.27-0.513   l0.339-0.471l0.402-0.418l0.456-0.358l0.502-0.291l0.538-0.218l0.563-0.14l1.582-0.319l1.564-0.397l1.542-0.474l1.517-0.55   l1.487-0.625l1.454-0.698l1.418-0.77l1.378-0.839l1.334-0.907l1.288-0.972l1.238-1.035l1.185-1.095l1.129-1.153l1.07-1.207   l1.009-1.259l0.945-1.308l0.879-1.353l0.81-1.395l0.74-1.434l0.668-1.469l0.264-0.517l0.333-0.475l0.397-0.423l0.452-0.364   l0.498-0.297l0.535-0.224l0.561-0.147l0.576-0.067l0.58,0.014l0.572,0.095l0.553,0.174l1.479,0.584l0.496,0.235l0.461,0.299   l0.417,0.357l0.366,0.409l0.309,0.454l0.246,0.491l0.178,0.52l0.108,0.539l0.035,0.548l-0.037,0.548l-0.11,0.538L88.938,66.567"></path><path class="st0" d="M75.639,20.536l-0.211-0.139l-0.24-0.079l-0.253-0.013l-0.247,0.054l-0.224,0.117l-0.186,0.172l-1.012,1.227   l-0.13,0.207l-0.073,0.234l-0.011,0.245l0.051,0.24l0.111,0.218l0.163,0.183l1.246,1.137l1.191,1.195l1.133,1.25l1.073,1.302   l1.01,1.352l0.945,1.398l0.877,1.441l0.808,1.481l0.737,1.518l0.664,1.551l0.59,1.581l0.515,1.607l0.438,1.63l0.36,1.648   l0.282,1.663l0.202,1.675l0.123,1.683l0.043,1.687l-0.037,1.687l-0.117,1.683l-0.196,1.676l-0.003,0.245l0.06,0.238l0.118,0.215   l0.169,0.177l0.209,0.129l0.234,0.071l1.568,0.263l0.253,0.008l0.246-0.058l0.222-0.121l0.183-0.175l0.13-0.217l0.069-0.243   l0.21-1.76l0.13-1.768l0.05-1.772l-0.031-1.772l-0.111-1.769l-0.191-1.762l-0.271-1.752l-0.35-1.738l-0.428-1.72l-0.506-1.699   l-0.582-1.674l-0.657-1.646l-0.731-1.615l-0.804-1.58l-0.874-1.542l-0.943-1.501l-1.011-1.456l-1.075-1.409l-1.138-1.359   l-1.199-1.306l-1.256-1.25L75.639,20.536 M77.724,18.135l1.358,1.232l1.303,1.289L81.631,22l1.187,1.397l1.125,1.448l1.061,1.495   L86,27.88l0.928,1.581l0.859,1.62l0.787,1.656l0.715,1.688l0.641,1.718l0.566,1.744l0.49,1.767l0.413,1.786l0.335,1.802   l0.257,1.815l0.178,1.825l0.099,1.831l0.019,1.833l-0.06,1.832l-0.14,1.828l-0.219,1.82l-0.113,0.538l-0.184,0.518L91.32,57.57   l-0.313,0.451l-0.37,0.406l-0.421,0.353l-0.464,0.294l-0.499,0.23l-0.525,0.162l-0.542,0.091l-0.549,0.018l-0.547-0.055   l-1.568-0.263l-0.564-0.136l-0.539-0.214l-0.504-0.287l-0.459-0.355l-0.405-0.415l-0.343-0.468l-0.274-0.511l-0.2-0.545   l-0.121-0.567l-0.041-0.578l0.041-0.579L82.3,53l0.106-1.61l0.026-1.613l-0.055-1.613l-0.135-1.608l-0.215-1.599l-0.294-1.586   l-0.372-1.57l-0.45-1.549l-0.526-1.525l-0.602-1.497l-0.675-1.465l-0.747-1.43l-0.818-1.391l-0.886-1.349l-0.952-1.303   l-1.015-1.254l-1.076-1.202l-1.135-1.147l-1.19-1.089l-0.41-0.41l-0.348-0.464l-0.28-0.508l-0.206-0.542l-0.128-0.566l-0.048-0.578   l0.034-0.579l0.114-0.569l0.193-0.547l0.267-0.515l0.337-0.472l1.012-1.227l0.377-0.4l0.427-0.346l0.469-0.286l0.503-0.222   l0.528-0.153l0.543-0.082l0.549-0.009l0.546,0.064l0.532,0.136l0.51,0.205l0.478,0.271L77.724,18.135"></path><path class="st0" d="M61.472,27.01l-1.31-0.607l-1.343-0.532l-1.37-0.456l-1.394-0.379l-1.413-0.3l-1.427-0.22l-1.437-0.14   l-1.443-0.059l-1.444,0.022l-1.44,0.103l-1.433,0.183l-1.42,0.263l-1.403,0.342l-1.382,0.42l-1.356,0.497l-1.326,0.573   l-1.292,0.646l-1.253,0.717l-0.138,0.128l-0.078,0.171l-0.005,0.188l0.068,0.176l1.024,1.61l0.127,0.133l0.168,0.075l0.184,0.006   l0.172-0.063l1.178-0.669l1.216-0.599l1.249-0.525l1.278-0.451l1.302-0.374l1.322-0.297l1.337-0.218l1.348-0.138l1.354-0.058   l1.355,0.022l1.351,0.102l1.343,0.182l1.33,0.261l1.312,0.339l1.29,0.416l1.263,0.492l1.231,0.566l0.177,0.048l0.182-0.022   l0.16-0.089l0.115-0.143l0.882-1.692l0.052-0.181l-0.022-0.187l-0.092-0.164L61.472,27.01 M31.614,32.033l-0.982,1.059   l-0.921,1.112l-0.857,1.162l-0.791,1.208l-0.722,1.251l-0.651,1.289l-0.577,1.324l-0.502,1.354l-0.426,1.38l-0.348,1.402   l-0.268,1.419l-0.188,1.432l-0.108,1.44l-0.027,1.444l0.054,1.443l0.135,1.438l0.215,1.428l0.295,1.414l0.079,0.171l0.139,0.127   l0.177,0.063l0.188-0.01l1.848-0.477l0.166-0.079l0.123-0.136l0.063-0.173l-0.007-0.184l-0.273-1.327l-0.194-1.341l-0.114-1.35   l-0.034-1.355l0.047-1.354l0.126-1.349l0.206-1.339l0.285-1.325l0.363-1.306l0.439-1.282l0.515-1.254l0.588-1.221l0.659-1.184   l0.728-1.143l0.794-1.098l0.858-1.049l0.918-0.996l0.101-0.154l0.035-0.18l-0.036-0.18l-0.101-0.153l-1.337-1.362l-0.156-0.106   l-0.185-0.037l-0.185,0.037L31.614,32.033 M27.166,61.981l0.704,1.261l0.773,1.22l0.84,1.174l0.905,1.126l0.967,1.073l1.025,1.017   l1.081,0.958l1.133,0.896l1.181,0.831l1.226,0.764l1.267,0.694l1.304,0.622l1.336,0.548l1.365,0.472l1.389,0.395l1.409,0.316   l1.425,0.237l1.436,0.156l0.187-0.022l0.164-0.093l0.115-0.149l0.048-0.182l0.118-1.905l-0.024-0.182l-0.091-0.159l-0.145-0.113   l-0.177-0.05l-1.347-0.151l-1.335-0.23l-1.319-0.309l-1.299-0.387l-1.274-0.463l-1.244-0.537l-1.21-0.61l-1.172-0.68l-1.13-0.749   l-1.083-0.814l-1.033-0.877l-0.98-0.936l-0.923-0.993l-0.862-1.045l-0.799-1.095l-0.733-1.14l-0.664-1.181l-0.115-0.143   l-0.161-0.089l-0.182-0.022l-0.177,0.049l-1.708,0.851l-0.149,0.115l-0.092,0.164l-0.022,0.187L27.166,61.981 M54.273,75.467   l1.417-0.28l1.399-0.358l1.377-0.436l1.35-0.513l1.319-0.588l1.284-0.661l1.245-0.732l1.202-0.8l1.156-0.866l1.105-0.93l1.051-0.99   l0.994-1.048l0.934-1.102l0.871-1.152l0.805-1.199l0.736-1.242l0.665-1.282l0.593-1.317l0.037-0.185l-0.038-0.184l-0.106-0.155   l-0.158-0.102l-1.775-0.7l-0.181-0.033l-0.18,0.038l-0.152,0.103l-0.102,0.153l-0.56,1.234l-0.632,1.199l-0.701,1.159l-0.769,1.116   l-0.834,1.068l-0.895,1.017l-0.954,0.962l-1.009,0.904l-1.061,0.843l-1.109,0.779l-1.153,0.712L60.25,70.54l-1.229,0.57   l-1.261,0.497l-1.288,0.421l-1.311,0.344l-1.329,0.266l-0.172,0.065l-0.135,0.125l-0.077,0.167l-0.008,0.184l0.281,1.887   l0.064,0.177l0.128,0.139l0.171,0.078L54.273,75.467 M75.476,53.853l0.172-1.434l0.091-1.441l0.01-1.444l-0.07-1.442l-0.151-1.436   l-0.231-1.425l-0.311-1.41l-0.39-1.391l-0.467-1.367l-0.543-1.338l-0.617-1.306l-0.689-1.269l-0.759-1.229l-0.827-1.184   L69.802,33.6l-0.954-1.084l-1.013-1.029l-1.07-0.97L66.6,30.425l-0.187-0.021l-0.181,0.053l-0.146,0.119l-1.215,1.472l-0.087,0.162   l-0.02,0.183l0.051,0.177l0.114,0.144l1.001,0.914l0.945,0.971l0.886,1.025l0.824,1.076l0.758,1.123l0.691,1.166l0.62,1.205   l0.548,1.239l0.474,1.27l0.398,1.295l0.321,1.317l0.242,1.333l0.163,1.345l0.083,1.353l0.003,1.355l-0.077,1.353l-0.157,1.346   l0.009,0.184l0.077,0.167l0.135,0.125l0.172,0.065l1.882,0.316l0.188-0.006l0.171-0.078l0.127-0.139L75.476,53.853 M78.306,54.274   l-0.108,0.48l-0.177,0.459l-0.243,0.428l-0.303,0.387l-0.357,0.339l-0.403,0.283l-0.44,0.22l-0.467,0.153l-0.485,0.083l0.372,0.321   l0.321,0.373l0.263,0.416l0.199,0.45l0.131,0.474l0.06,0.488l-0.013,0.492l-0.085,0.484l-0.155,0.467l-0.622,1.387l-0.694,1.352   l-0.765,1.314l-0.834,1.271l-0.9,1.225l-0.964,1.175l-1.025,1.123l-1.083,1.067l-1.138,1.008l-1.19,0.946l-1.239,0.881   l-1.284,0.814l-1.325,0.745l-1.363,0.673l-1.397,0.6l-1.427,0.525l-1.452,0.449l-1.474,0.371l-1.492,0.292l-0.49,0.046   l-0.491-0.027l-0.482-0.099l-0.462-0.168l-0.432-0.235l-0.393-0.296l-0.346-0.35l-0.29-0.397l-0.229-0.435l-0.191,0.453   l-0.255,0.421l-0.314,0.379l-0.366,0.328l-0.411,0.271l-0.446,0.208l-0.472,0.14l-0.487,0.069l-0.492-0.003l-1.512-0.162   l-1.501-0.243l-1.486-0.322l-1.467-0.4l-1.443-0.478l-1.416-0.553l-1.384-0.628l-1.349-0.701l-1.31-0.771l-1.267-0.84l-1.221-0.906   l-1.171-0.969l-1.118-1.03l-1.062-1.088l-1.002-1.143l-0.94-1.195l-0.875-1.243l-0.808-1.288l-0.739-1.329l-0.195-0.452   l-0.126-0.475l-0.055-0.489l0.017-0.492l0.09-0.484l0.16-0.465l0.226-0.437l0.288-0.399l0.343-0.352l-0.49-0.041l-0.479-0.113   l-0.457-0.182l-0.425-0.247l-0.384-0.307l-0.335-0.36l-0.279-0.405l-0.216-0.442l-0.149-0.469l-0.313-1.488l-0.233-1.502   l-0.153-1.513l-0.073-1.519l0.008-1.52l0.089-1.518l0.169-1.511l0.249-1.5l0.329-1.484l0.407-1.465l0.484-1.441l0.56-1.413   l0.634-1.382l0.707-1.346l0.777-1.306l0.846-1.263l0.911-1.217l0.975-1.167l1.035-1.113l0.369-0.325l0.413-0.267l0.448-0.204   l0.473-0.135l0.488-0.064l0.492,0.008l0.485,0.08l0.468,0.151l0.441,0.218l-0.112-0.479l-0.041-0.49l0.032-0.491l0.103-0.481   l0.173-0.461l0.239-0.43l0.299-0.39l0.354-0.342l0.4-0.286l1.318-0.757l1.357-0.686l1.391-0.613l1.422-0.538l1.448-0.462   l1.471-0.384l1.489-0.306l1.503-0.226l1.513-0.146l1.519-0.066l1.52,0.015l1.517,0.096l1.51,0.176L55.573,22l1.483,0.336   l1.463,0.414l1.439,0.491l1.411,0.567l1.379,0.641l0.423,0.251l0.382,0.31l0.332,0.363l0.275,0.408l0.212,0.444l0.145,0.47   l0.074,0.486l0.002,0.492l-0.071,0.487l0.421-0.255l0.454-0.19l0.477-0.122l0.489-0.05l0.491,0.022l0.483,0.094l0.464,0.164   l0.435,0.23l0.396,0.292l1.127,1.02l1.072,1.078l1.013,1.134l0.951,1.186l0.887,1.235l0.82,1.28l0.751,1.322l0.68,1.36l0.606,1.394   l0.532,1.424l0.455,1.45l0.378,1.472l0.299,1.491l0.219,1.504l0.139,1.514l0.058,1.519l-0.022,1.52l-0.103,1.517L78.306,54.274"></path></g></svg>