<svg height='100px' width='100px'  fill="#FFFFFF" xmlns="http://www.w3.org/2000/svg" xmlns:xlink="http://www.w3.org/1999/xlink" xml:space="preserve" version="1.1" style="shape-rendering:geometricPrecision;text-rendering:geometricPrecision;image-rendering:optimizeQuality;" viewBox="0 0 847 847" x="0px" y="0px" fill-rule="evenodd" clip-rule="evenodd"><defs><style type="text/css">
   
    .fil0 {fill:#FFFFFF;fill-rule:nonzero}
   
  </style></defs><g><path class="fil0" d="M423 23c221,0 401,179 401,400 0,221 -180,401 -401,401 -221,0 -400,-180 -400,-401 0,-221 179,-400 400,-400zm-277 140l156 -101c-60,20 -114,55 -156,101zm214 -115l-252 162c-16,23 -29,47 -39,73l374 -240c-28,-1 -55,0 -83,5zm127 751l252 -162c15,-23 28,-47 39,-73l-374 240c28,1 55,0 83,-5zm214 -115l-156 100c60,-20 113,-55 156,-100zm-328 117l415 -267c5,-18 10,-37 12,-56l-484 311c19,5 37,9 57,12zm430 -348c1,-16 2,-32 1,-49l-556 358c14,7 29,14 45,19l510 -328zm-574 298l573 -369c-2,-15 -4,-29 -7,-43l-603 387c12,9 24,17 37,25zm561 -432c-4,-14 -9,-27 -14,-40l-630 405c10,11 20,20 30,29l614 -394zm-22 -58c-6,-12 -12,-24 -19,-35l-641 411c8,12 16,23 25,33l635 -409zm-670 360l640 -412c-7,-11 -15,-22 -24,-32l-636 408c6,13 13,25 20,36zm-27 -54l630 -405c-10,-10 -20,-19 -31,-29l-613 395c4,13 8,27 14,39zm-19 -59l603 -387c-12,-9 -24,-18 -37,-25l-573 368c1,15 4,30 7,44zm502 -442l-510 328c-2,16 -2,32 -1,49l556 -358c-15,-7 -29,-14 -45,-19zm-495 247c-6,18 -10,37 -13,56l485 -311c-19,-6 -38,-10 -57,-12l-415 267z"></path></g></svg>