<svg height='100px' width='100px'  fill="#FFFFFF" xmlns="http://www.w3.org/2000/svg" xmlns:xlink="http://www.w3.org/1999/xlink" xml:space="preserve" version="1.1" style="shape-rendering:geometricPrecision;text-rendering:geometricPrecision;image-rendering:optimizeQuality;" viewBox="0 0 847 847" x="0px" y="0px" fill-rule="evenodd" clip-rule="evenodd"><defs><style type="text/css">
   
    .fil0 {fill:#FFFFFF}
   
  </style></defs><g><path class="fil0" d="M423 23c-221,0 -400,179 -400,400 0,221 179,401 400,401 221,0 401,-180 401,-401 0,-221 -180,-400 -401,-400zm-97 24l-204 133c55,-65 120,-106 204,-133zm128 -10l-395 254c12,-31 25,-58 44,-85l255 -165c33,-5 63,-6 96,-4zm-61 773l395 -254c-13,31 -25,58 -44,85l-256 164c-32,6 -62,7 -95,5zm129 -11l206 -132c-64,66 -124,103 -206,132zm-215 -6l501 -322c-3,23 -7,44 -14,66l-421 271c-22,-3 -44,-8 -66,-15zm503 -338l-518 333c-18,-7 -35,-14 -52,-23l570 -367c1,19 1,38 0,57zm-626 273l616 -396c4,18 7,34 9,52l-582 374c-15,-9 -29,-19 -43,-30zm613 -408l-623 400c-13,-11 -24,-22 -36,-34l643 -413c6,15 11,31 16,47zm-22 -59l-645 415c-11,-12 -20,-24 -29,-38l652 -419c8,14 16,28 22,42zm-704 324l646 -415c10,13 20,25 29,38l-652 420c-8,-14 -16,-28 -23,-43zm-21 -58l623 -400c12,11 24,22 35,34l-642 413c-6,-16 -12,-31 -16,-47zm-12 -64l582 -374c15,9 29,19 42,29l-615 396c-4,-17 -7,-33 -9,-51zm569 -381l-570 367c-1,-20 -1,-38 0,-57l518 -333c18,6 35,14 52,23zm-554 228l421 -271c22,3 44,8 66,14l-501 323c3,-23 7,-44 14,-66z"></path></g></svg>