<svg height='100px' width='100px'  fill="#FFFFFF" xmlns="http://www.w3.org/2000/svg" xmlns:xlink="http://www.w3.org/1999/xlink" version="1.1" x="0px" y="0px" viewBox="0 0 100 100" style="enable-background:new 0 0 100 100;" xml:space="preserve"><style type="text/css">
	.st0{fill-rule:evenodd;clip-rule:evenodd;}
</style><g><path class="st0" d="M29.79,18.871l-0.198,0.158l-0.149,0.204l-0.09,0.236l-0.025,0.252l0.042,0.249l0.106,0.23l0.854,1.342   l0.157,0.188l0.2,0.142l0.229,0.086l0.244,0.025l0.242-0.038l0.224-0.098l1.467-0.834l1.505-0.764l1.539-0.691l1.57-0.618   l1.598-0.542l1.622-0.466l1.642-0.389l1.658-0.311l1.671-0.232l1.68-0.153l1.686-0.073l1.687,0.007l1.685,0.087l1.679,0.167   l1.669,0.246l1.656,0.325l1.638,0.403l1.618,0.48l1.593,0.556l1.565,0.631l1.533,0.705l0.232,0.078l0.244,0.017l0.24-0.046   l0.221-0.106l0.187-0.159l0.14-0.201l0.735-1.41l0.086-0.238l0.021-0.252l-0.046-0.249l-0.11-0.228L67.37,17.4l-0.21-0.14   l-1.609-0.743l-1.641-0.67l-1.67-0.595l-1.695-0.518l-1.717-0.441l-1.735-0.363l-1.75-0.284l-1.761-0.204l-1.768-0.124   l-1.772-0.044l-1.772,0.036l-1.769,0.116l-1.762,0.196l-1.751,0.276l-1.737,0.355l-1.719,0.434l-1.697,0.511l-1.673,0.587   l-1.644,0.662l-1.612,0.736l-1.577,0.809L29.79,18.871 M28.151,16.147l1.591-0.911l1.629-0.841l1.664-0.77l1.696-0.697l1.724-0.623   l1.75-0.547l1.772-0.471l1.791-0.394l1.806-0.316l1.818-0.237l1.827-0.158l1.832-0.079l1.833,0l1.832,0.08l1.826,0.159l1.818,0.238   l1.806,0.317l1.79,0.395l1.772,0.472l1.749,0.548l1.724,0.624l1.695,0.698l1.664,0.771l0.476,0.274l0.436,0.335l0.387,0.389   l0.332,0.437l0.271,0.478l0.206,0.509l0.136,0.532l0.065,0.545l-0.008,0.549l-0.081,0.543l-0.152,0.528l-0.221,0.503l-0.735,1.41   l-0.303,0.494l-0.37,0.447l-0.429,0.391l-0.479,0.327l-0.52,0.257l-0.551,0.181l-0.571,0.102l-0.58,0.021l-0.577-0.06l-0.563-0.14   l-0.538-0.217l-1.467-0.672l-1.499-0.598l-1.526-0.523l-1.55-0.446l-1.571-0.369l-1.587-0.29l-1.6-0.211l-1.608-0.131l-1.613-0.051   l-1.613,0.029l-1.61,0.11l-1.602,0.19l-1.591,0.269l-1.575,0.348l-1.556,0.426l-1.533,0.502l-1.506,0.578l-1.476,0.652   l-1.441,0.725l-1.403,0.796l-0.517,0.263l-0.549,0.188l-0.57,0.109l-0.579,0.028l-0.578-0.053l-0.564-0.133l-0.54-0.211   l-0.506-0.284L28.4,24.129l-0.407-0.413l-0.345-0.466l-0.854-1.342l-0.264-0.482l-0.197-0.513l-0.128-0.534l-0.056-0.546   l0.017-0.549l0.09-0.542l0.161-0.525l0.229-0.499l0.294-0.464l0.352-0.421l0.405-0.371L28.151,16.147"></path><path class="st0" d="M36.541,30.396l-0.138,0.128l-0.078,0.171l-0.005,0.188l0.068,0.176l1.024,1.61l0.127,0.133l0.168,0.075   l0.184,0.007l0.172-0.063l1.178-0.669l1.216-0.599l1.249-0.525l1.278-0.451l1.302-0.374l1.322-0.297l1.337-0.218l1.348-0.138   l1.354-0.058l1.355,0.022l1.351,0.102l1.343,0.182l1.33,0.261l1.312,0.339l1.29,0.416l1.263,0.492l1.231,0.566l0.177,0.048   l0.182-0.022l0.16-0.089l0.115-0.143l0.882-1.692l0.052-0.181l-0.022-0.187l-0.092-0.164l-0.149-0.116l-1.31-0.607l-1.343-0.532   l-1.37-0.456l-1.394-0.379l-1.413-0.3l-1.427-0.22l-1.437-0.14l-1.443-0.059l-1.444,0.022l-1.44,0.103l-1.433,0.183l-1.42,0.263   l-1.403,0.342l-1.382,0.42l-1.356,0.497l-1.326,0.573l-1.292,0.646L36.541,30.396 M62.701,26.76l0.454,0.273l0.405,0.342   l0.346,0.401l0.278,0.451l0.203,0.49l0.123,0.516l0.04,0.529l-0.044,0.528l-0.127,0.515l-0.207,0.488l-0.882,1.692l-0.274,0.439   l-0.338,0.391l-0.395,0.334l-0.441,0.269l-0.478,0.198l-0.503,0.122l-0.515,0.043l-0.516-0.037l-0.504-0.117l-0.48-0.193   l-1.146-0.524l-1.176-0.451l-1.202-0.376l-1.224-0.299l-1.24-0.222l-1.252-0.143l-1.258-0.064l-1.26,0.015l-1.256,0.094   l-1.248,0.173l-1.235,0.251l-1.216,0.328l-1.193,0.404l-1.166,0.478l-1.133,0.55l-1.097,0.62l-0.461,0.234l-0.492,0.16   l-0.511,0.082l-0.517,0.002l-0.511-0.078l-0.493-0.156l-0.463-0.23l-0.422-0.299l-0.371-0.361l-0.311-0.413l-1.024-1.61   l-0.248-0.468l-0.171-0.502l-0.089-0.523l-0.005-0.53l0.078-0.524l0.161-0.505l0.238-0.473l0.31-0.43l0.375-0.375l0.429-0.311   l1.318-0.757l1.357-0.686l1.391-0.613l1.422-0.538l1.448-0.462l1.471-0.384l1.489-0.306l1.503-0.226l1.513-0.146l1.519-0.065   l1.52,0.015l1.517,0.096l1.51,0.176l1.499,0.256l1.483,0.336l1.463,0.414l1.439,0.491l1.411,0.567L62.701,26.76"></path><path class="st0" d="M31.016,86.6l0.236,0.092l0.251,0.027l0.25-0.04l0.23-0.104l0.195-0.161l0.146-0.207l0.735-1.41l0.084-0.23   l0.023-0.244l-0.04-0.242l-0.1-0.224l-0.154-0.191l-0.197-0.145l-1.456-0.853l-1.413-0.921l-1.368-0.987l-1.32-1.051l-1.269-1.112   l-1.215-1.171l-1.158-1.227l-1.098-1.281l-1.036-1.331l-0.972-1.379l-0.906-1.424l-0.837-1.465l-0.767-1.503l-0.695-1.537   l-0.621-1.569l-0.546-1.596l-0.47-1.62l-0.393-1.641l-0.315-1.658l-0.236-1.671l-0.156-1.68l-0.048-0.24l-0.108-0.22l-0.16-0.185   L13.91,54.06l-0.231-0.082l-0.244-0.021l-1.589,0.069l-0.249,0.044l-0.229,0.108l-0.192,0.165l-0.142,0.209l-0.082,0.239   l-0.016,0.252l0.161,1.765l0.24,1.756l0.32,1.743l0.398,1.727l0.476,1.707l0.553,1.684l0.629,1.657l0.703,1.627l0.776,1.593   l0.848,1.557l0.917,1.517l0.985,1.474l1.051,1.427l1.115,1.378l1.176,1.326l1.235,1.272l1.291,1.214l1.345,1.155l1.396,1.093   l1.444,1.028l1.489,0.962L31.016,86.6 M29.477,89.382l-1.584-0.922l-1.543-0.99l-1.499-1.056l-1.451-1.12l-1.402-1.182   l-1.349-1.241l-1.294-1.299l-1.236-1.354l-1.176-1.406l-1.115-1.456l-1.05-1.503l-0.984-1.547l-0.916-1.588l-0.847-1.626   l-0.775-1.661l-0.703-1.693l-0.629-1.722L9.37,64.267l-0.477-1.77l-0.4-1.789l-0.322-1.805l-0.243-1.817L7.764,55.26L7.763,54.71   l0.072-0.544l0.144-0.53l0.213-0.506l0.278-0.474l0.338-0.433l0.393-0.384l0.44-0.329l0.48-0.268l0.511-0.201l0.533-0.132   l0.546-0.06l1.589-0.068l0.58,0.016l0.572,0.097l0.553,0.176l0.523,0.252l0.482,0.322l0.433,0.386l0.374,0.443l0.308,0.491   l0.237,0.53l0.16,0.557l0.081,0.574l0.151,1.606l0.231,1.597l0.31,1.583l0.389,1.566l0.466,1.544l0.542,1.519l0.617,1.491   l0.691,1.458l0.762,1.422l0.832,1.382l0.9,1.339l0.965,1.293l1.028,1.243l1.089,1.191l1.147,1.135l1.202,1.076l1.254,1.015   l1.303,0.952l1.349,0.886l1.391,0.818l0.486,0.316l0.437,0.381l0.379,0.439l0.314,0.487l0.243,0.527l0.167,0.555l0.087,0.573   l0.006,0.58l-0.075,0.575l-0.155,0.559l-0.231,0.532l-0.735,1.41l-0.286,0.469l-0.345,0.427l-0.399,0.378l-0.445,0.321   l-0.484,0.259l-0.514,0.193l-0.535,0.123l-0.547,0.051l-0.549-0.022l-0.541-0.095l-0.524-0.165L29.477,89.382"></path><path class="st0" d="M37.622,74.992l0.18,0.056l0.187-0.018l0.166-0.089l0.118-0.146l0.882-1.692l0.052-0.176l-0.019-0.183   l-0.086-0.162l-0.141-0.118l-1.169-0.686l-1.126-0.754l-1.08-0.819l-1.029-0.881l-0.975-0.941l-0.918-0.997l-0.857-1.049   l-0.794-1.098l-0.728-1.143l-0.659-1.184l-0.587-1.221l-0.514-1.254l-0.439-1.282l-0.362-1.306l-0.285-1.325l-0.206-1.339   l-0.126-1.349l-0.047-0.178l-0.11-0.147l-0.158-0.094l-0.182-0.028l-1.906,0.082l-0.183,0.045l-0.151,0.112l-0.096,0.162   l-0.026,0.187l0.13,1.438l0.21,1.429l0.29,1.415l0.369,1.396l0.447,1.373l0.523,1.346l0.597,1.315l0.67,1.279l0.741,1.24   l0.809,1.196l0.875,1.149l0.938,1.098l0.998,1.044l1.055,0.986l1.109,0.926l1.159,0.862l1.205,0.796L37.622,74.992 M21.393,54.154   l0.009-0.53l0.093-0.522l0.175-0.501l0.252-0.467l0.322-0.421l0.385-0.365l0.438-0.299l0.479-0.226l0.509-0.147l0.526-0.065   l1.906-0.082l0.517,0.018l0.508,0.097l0.487,0.175l0.454,0.248l0.41,0.315l0.357,0.374l0.295,0.425l0.225,0.465l0.151,0.495   l0.073,0.512l0.119,1.254l0.198,1.244l0.276,1.229l0.353,1.209l0.428,1.185l0.501,1.156l0.573,1.122l0.643,1.084l0.709,1.041   l0.773,0.994l0.834,0.944l0.892,0.889l0.946,0.832l0.997,0.771l1.043,0.706l1.085,0.639l0.433,0.283l0.384,0.346l0.326,0.401   l0.26,0.447l0.188,0.482l0.111,0.505l0.032,0.516l-0.048,0.515l-0.127,0.501l-0.203,0.476l-0.882,1.692l-0.282,0.449l-0.349,0.399   l-0.408,0.339l-0.456,0.27l-0.493,0.194l-0.518,0.114l-0.529,0.03l-0.527-0.054l-0.512-0.137l-0.484-0.216l-1.315-0.763   l-1.272-0.832l-1.226-0.898l-1.177-0.962l-1.124-1.023l-1.068-1.082l-1.009-1.137l-0.948-1.189l-0.883-1.237l-0.816-1.283   l-0.747-1.324l-0.676-1.362l-0.602-1.396L22.86,61.59l-0.451-1.452l-0.373-1.474l-0.294-1.491l-0.215-1.505L21.393,54.154"></path><path class="st0" d="M89.058,51.674l-0.038-0.25l-0.102-0.231l-0.16-0.196l-0.206-0.147l-0.237-0.088l-0.252-0.023l-1.589,0.069   l-0.241,0.042l-0.223,0.102l-0.189,0.155l-0.144,0.198l-0.088,0.228l-0.027,0.243l-0.011,1.687l-0.091,1.685l-0.171,1.679   l-0.25,1.669l-0.329,1.655l-0.407,1.637l-0.484,1.616l-0.56,1.592l-0.635,1.563l-0.708,1.531l-0.78,1.496l-0.85,1.457l-0.918,1.416   l-0.984,1.371l-1.048,1.322l-1.109,1.271l-1.168,1.217l-1.225,1.161l-1.278,1.101l-1.329,1.04l-1.377,0.976l-0.184,0.162   l-0.137,0.203l-0.08,0.231l-0.019,0.244l0.044,0.241l0.104,0.222l0.854,1.342l0.163,0.193l0.208,0.144l0.239,0.084l0.252,0.019   l0.248-0.049l0.227-0.112l1.448-1.022l1.401-1.086l1.35-1.149l1.297-1.209l1.24-1.266l1.182-1.321l1.121-1.373l1.057-1.423   l0.992-1.469l0.924-1.512l0.855-1.553l0.784-1.59l0.711-1.624l0.636-1.654l0.561-1.682l0.484-1.705l0.406-1.725l0.328-1.742   l0.248-1.755l0.168-1.765l0.088-1.77L89.058,51.674 M92.237,51.617l-0.007,1.833l-0.086,1.831l-0.165,1.826l-0.244,1.817   l-0.323,1.805l-0.401,1.789l-0.478,1.77l-0.554,1.748l-0.629,1.722l-0.703,1.693l-0.776,1.661l-0.847,1.626l-0.917,1.588   l-0.985,1.546l-1.051,1.502l-1.115,1.455l-1.177,1.405l-1.237,1.353l-1.295,1.298l-1.35,1.241l-1.402,1.181l-1.452,1.119   l-1.499,1.055l-0.475,0.275l-0.507,0.21l-0.531,0.141l-0.545,0.069l-0.549-0.004l-0.544-0.077l-0.529-0.148l-0.505-0.217   l-0.472-0.282l-0.43-0.342l-0.381-0.396L67.75,86.27l-0.854-1.342l-0.276-0.51l-0.202-0.544l-0.124-0.566L66.25,82.73l0.038-0.579   l0.119-0.568l0.197-0.546l0.271-0.513l0.34-0.47l0.403-0.417l0.457-0.357l1.315-0.934l1.267-0.999l1.216-1.06l1.162-1.119   l1.105-1.176l1.045-1.229l0.982-1.28l0.918-1.327l0.85-1.371l0.781-1.412l0.71-1.449l0.637-1.482l0.563-1.512l0.487-1.538   l0.41-1.561l0.331-1.579l0.252-1.593l0.173-1.604l0.093-1.611l0.013-1.613l0.031-0.579l0.112-0.569l0.19-0.548l0.265-0.516   l0.335-0.474l0.398-0.422l0.453-0.362l0.499-0.296l0.535-0.223l0.561-0.146l0.576-0.066l1.589-0.069l0.549,0.013l0.543,0.086   l0.526,0.157l0.501,0.225l0.467,0.29l0.424,0.349l0.374,0.402l0.318,0.448l0.255,0.486l0.189,0.516l0.119,0.536L92.237,51.617"></path><path class="st0" d="M75.702,51.758l-0.042-0.184l-0.109-0.153l-0.16-0.099l-0.186-0.029l-1.906,0.082l-0.179,0.043l-0.149,0.107   l-0.097,0.156l-0.031,0.181l-0.009,1.355l-0.09,1.352l-0.169,1.344l-0.249,1.332l-0.327,1.315l-0.404,1.293l-0.48,1.267   l-0.554,1.237l-0.626,1.202l-0.696,1.163l-0.764,1.119l-0.829,1.072l-0.891,1.021l-0.95,0.967l-1.005,0.909l-1.057,0.848   l-1.106,0.784l-0.13,0.129l-0.072,0.169l-0.003,0.184l0.067,0.171l1.024,1.61l0.13,0.136l0.173,0.075l0.188,0.002l0.174-0.071   l1.181-0.832l1.132-0.897l1.08-0.958l1.025-1.018l0.966-1.073l0.905-1.126l0.84-1.175l0.773-1.22l0.703-1.261l0.631-1.299   l0.558-1.332l0.482-1.361l0.405-1.386l0.327-1.407l0.247-1.423l0.167-1.434l0.086-1.442L75.702,51.758 M65.771,76.231l-0.464,0.257   l-0.499,0.18l-0.521,0.099l-0.53,0.015l-0.526-0.069l-0.508-0.151l-0.478-0.229l-0.435-0.302l-0.382-0.367l-0.319-0.423   l-1.024-1.61l-0.243-0.456l-0.169-0.489l-0.092-0.509l-0.012-0.517l0.068-0.513l0.146-0.496l0.221-0.468l0.29-0.428l0.353-0.378   l0.407-0.319l1.026-0.73l0.978-0.794l0.927-0.853l0.871-0.91l0.812-0.963l0.75-1.012l0.685-1.057l0.617-1.098l0.547-1.135   l0.475-1.167l0.4-1.195l0.324-1.217l0.247-1.235l0.169-1.248l0.09-1.257l0.011-1.26l0.028-0.516l0.108-0.506l0.185-0.483   l0.257-0.449l0.323-0.404l0.382-0.349l0.431-0.286l0.47-0.216l0.497-0.141l0.513-0.062l1.906-0.082l0.53,0.019l0.52,0.103   l0.497,0.184L77.091,49l0.415,0.33l0.357,0.392l0.291,0.443l0.217,0.484l0.138,0.512l0.055,0.527l-0.004,1.52l-0.084,1.518   l-0.165,1.511l-0.245,1.5l-0.324,1.485l-0.402,1.466l-0.48,1.442l-0.556,1.415l-0.63,1.383l-0.703,1.348l-0.773,1.309l-0.842,1.266   l-0.908,1.219l-0.971,1.17l-1.032,1.116l-1.09,1.06l-1.145,1.001l-1.196,0.938L65.771,76.231"></path></g></svg>