<svg height='100px' width='100px'  fill="#FFFFFF" xmlns="http://www.w3.org/2000/svg" xmlns:xlink="http://www.w3.org/1999/xlink" version="1.1" x="0px" y="0px" viewBox="0 0 100 100" style="enable-background:new 0 0 100 100;" xml:space="preserve"><style type="text/css">
	.st0{fill-rule:evenodd;clip-rule:evenodd;}
</style><g><path class="st0" d="M36.562,29.556l-0.138,0.128l-0.078,0.171l-0.006,0.188l0.068,0.176l1.024,1.61l0.127,0.133l0.168,0.075   l0.184,0.006l0.172-0.063l1.178-0.669l1.216-0.599l1.249-0.525l1.278-0.451l1.302-0.374l1.322-0.297l1.337-0.218l1.348-0.138   l1.354-0.058l1.355,0.022l1.351,0.102l1.343,0.182l1.33,0.261l1.312,0.339l1.29,0.416l1.263,0.492l1.231,0.566l0.177,0.048   l0.182-0.022l0.16-0.089l0.115-0.143l0.882-1.692l0.052-0.181l-0.022-0.187l-0.092-0.164l-0.149-0.116l-1.31-0.607l-1.343-0.532   l-1.37-0.456l-1.394-0.379l-1.413-0.3l-1.427-0.22l-1.437-0.14l-1.443-0.059l-1.444,0.022l-1.44,0.103l-1.433,0.183l-1.42,0.263   l-1.403,0.342l-1.382,0.42l-1.356,0.497l-1.326,0.573l-1.292,0.646L36.562,29.556 M62.723,25.92l0.454,0.273l0.405,0.342   l0.346,0.401l0.278,0.451l0.203,0.49l0.123,0.516l0.04,0.529L64.53,29.45l-0.127,0.515l-0.207,0.488l-0.882,1.692l-0.274,0.439   l-0.338,0.391l-0.395,0.334l-0.441,0.269l-0.478,0.198l-0.503,0.122l-0.515,0.043l-0.516-0.037l-0.504-0.117l-0.48-0.193   l-1.146-0.524l-1.176-0.451l-1.202-0.376l-1.224-0.299l-1.24-0.222l-1.252-0.143l-1.258-0.064l-1.26,0.015l-1.256,0.094   l-1.248,0.173l-1.235,0.251l-1.216,0.328l-1.193,0.404l-1.166,0.478l-1.133,0.55l-1.097,0.62l-0.461,0.234l-0.492,0.16   l-0.511,0.082l-0.517,0.002l-0.511-0.078l-0.493-0.156l-0.463-0.23L35.7,34.139l-0.371-0.361l-0.311-0.413l-1.024-1.61   l-0.248-0.469l-0.171-0.502l-0.089-0.523l-0.005-0.53l0.078-0.524l0.161-0.505l0.238-0.473l0.31-0.43l0.375-0.375l0.429-0.311   l1.318-0.757l1.357-0.686l1.391-0.613l1.422-0.538l1.448-0.462l1.471-0.384l1.489-0.306l1.503-0.226l1.513-0.146l1.519-0.066   l1.52,0.015l1.517,0.096l1.51,0.176l1.499,0.256l1.483,0.336l1.463,0.414l1.439,0.491l1.411,0.567L62.723,25.92"></path><path class="st0" d="M37.643,74.152l0.18,0.056l0.187-0.018l0.166-0.089l0.118-0.146l0.882-1.692l0.052-0.176l-0.019-0.183   l-0.086-0.162l-0.141-0.118l-1.169-0.686l-1.126-0.754l-1.08-0.819l-1.029-0.881l-0.975-0.941l-0.918-0.997l-0.857-1.049   l-0.794-1.098l-0.728-1.143l-0.659-1.184l-0.587-1.221l-0.514-1.254l-0.439-1.282l-0.362-1.306l-0.285-1.325l-0.206-1.339   l-0.126-1.349l-0.047-0.178l-0.11-0.147l-0.158-0.094l-0.182-0.028l-1.906,0.082l-0.183,0.045l-0.151,0.112l-0.096,0.162   l-0.026,0.187l0.13,1.438l0.21,1.429l0.29,1.415l0.369,1.396l0.447,1.373l0.523,1.346l0.597,1.315l0.67,1.279l0.741,1.24   l0.809,1.196l0.875,1.149l0.938,1.098l0.998,1.044l1.055,0.986l1.109,0.926l1.159,0.862l1.205,0.796L37.643,74.152 M21.415,53.314   l0.009-0.53l0.093-0.522l0.175-0.501l0.252-0.467l0.322-0.421l0.385-0.365l0.438-0.299l0.479-0.226l0.509-0.147l0.526-0.065   l1.906-0.082l0.517,0.018l0.508,0.097l0.487,0.175l0.454,0.248l0.41,0.315l0.357,0.374l0.295,0.425l0.225,0.465l0.151,0.495   l0.073,0.512l0.119,1.254l0.198,1.244l0.276,1.229l0.353,1.209l0.428,1.185l0.501,1.156l0.573,1.122l0.643,1.084l0.709,1.041   l0.773,0.994l0.834,0.944l0.892,0.89l0.946,0.832l0.997,0.771l1.043,0.706l1.085,0.639l0.433,0.283l0.384,0.346l0.326,0.401   l0.26,0.447l0.188,0.482l0.111,0.505l0.032,0.516l-0.048,0.515l-0.127,0.501l-0.203,0.476l-0.882,1.692l-0.282,0.449l-0.349,0.399   l-0.408,0.339l-0.456,0.27l-0.493,0.194l-0.518,0.114l-0.529,0.03l-0.527-0.054l-0.512-0.137l-0.484-0.216l-1.315-0.763   l-1.272-0.832l-1.226-0.898l-1.177-0.962l-1.124-1.023l-1.068-1.082l-1.009-1.137l-0.948-1.189l-0.883-1.237l-0.816-1.283   l-0.747-1.324l-0.676-1.362l-0.602-1.396l-0.527-1.426l-0.451-1.452l-0.373-1.474l-0.294-1.491l-0.215-1.505L21.415,53.314"></path><path class="st0" d="M75.724,50.918l-0.042-0.184l-0.109-0.153l-0.16-0.099l-0.186-0.029l-1.906,0.082l-0.179,0.043l-0.149,0.107   l-0.097,0.156l-0.031,0.181l-0.009,1.355l-0.09,1.352l-0.169,1.344l-0.249,1.332l-0.327,1.315l-0.404,1.293l-0.48,1.267   l-0.554,1.237l-0.626,1.202l-0.696,1.163l-0.764,1.119l-0.829,1.072l-0.891,1.021l-0.95,0.967l-1.005,0.909l-1.057,0.848   l-1.106,0.784l-0.13,0.129L62.456,70.9l-0.003,0.184l0.067,0.171l1.024,1.61l0.13,0.136l0.173,0.075l0.188,0.002l0.174-0.071   l1.181-0.832l1.132-0.897l1.08-0.958l1.025-1.018l0.966-1.073l0.905-1.126l0.84-1.175l0.773-1.22l0.703-1.261l0.631-1.299   l0.558-1.332l0.482-1.361l0.405-1.386l0.327-1.407l0.247-1.423l0.167-1.434l0.086-1.442L75.724,50.918 M65.792,75.391l-0.464,0.257   l-0.499,0.18l-0.521,0.099l-0.53,0.015l-0.526-0.069l-0.508-0.151l-0.478-0.229l-0.435-0.302l-0.382-0.367l-0.319-0.423   l-1.024-1.61l-0.243-0.456l-0.169-0.488l-0.092-0.509l-0.012-0.517l0.068-0.513l0.146-0.496l0.221-0.468l0.29-0.428l0.353-0.378   l0.407-0.319l1.026-0.73l0.978-0.794l0.927-0.853l0.871-0.91l0.812-0.963l0.75-1.012l0.685-1.057l0.617-1.098l0.547-1.135   l0.475-1.167l0.4-1.195l0.324-1.217l0.247-1.235l0.169-1.248l0.09-1.257l0.011-1.26l0.028-0.516l0.108-0.506l0.185-0.483   l0.257-0.449l0.323-0.404l0.382-0.349l0.431-0.286l0.47-0.216l0.497-0.141l0.513-0.062l1.906-0.082l0.53,0.019l0.52,0.103   l0.497,0.184l0.462,0.26l0.415,0.33l0.357,0.392l0.291,0.443l0.217,0.484l0.138,0.512l0.055,0.527l-0.004,1.52l-0.084,1.518   l-0.165,1.511l-0.245,1.5l-0.324,1.485l-0.403,1.466l-0.48,1.442l-0.556,1.415l-0.63,1.383l-0.703,1.348l-0.773,1.309l-0.842,1.266   l-0.908,1.219l-0.971,1.17l-1.032,1.116l-1.09,1.06l-1.145,1.001l-1.196,0.938L65.792,75.391"></path></g></svg>