<?xml version="1.0" encoding="UTF-8"?>
<svg width="1200pt" height="1200pt" version="1.1" viewBox="0 0 1200 1200" xmlns="http://www.w3.org/2000/svg">
 <path d="m1012.5 1068.8h-89.062v-37.5h89.062c10.34 0 18.75-8.4102 18.75-18.75l37.5-0.15625v0.15625c0 31.016-25.234 56.25-56.25 56.25zm-236.72 0h-145.31v-37.5h145.31zm-292.97 0h-147.66v-37.5h147.66zm-295.27 0h-0.039062c-31.016 0-56.25-25.234-56.25-56.25v-89.062h37.5v89.062c0 10.34 8.4102 18.75 18.75 18.75zm881.21-203.91h-37.5v-147.66h37.5zm-900-89.062h-37.5v-145.31h37.5zm900-206.25h-37.5v-145.31h37.5zm-900-86.719h-37.5v-147.66h37.5zm900-206.25h-37.5v-89.062c0-10.34-8.4102-18.75-18.75-18.75l-0.11719-37.5h0.11719c31.016 0 56.25 25.234 56.25 56.25zm-937.5-88.984v-0.078125c0-31.016 25.234-56.25 56.25-56.25h89.062v37.5h-89.062c-10.34 0-18.75 8.4102-18.75 18.75zm733.59-18.828h-147.66v-37.5h147.66zm-295.31 0h-145.31v-37.5h145.31z" fill="#fff"/>
</svg>
