<svg height='100px' width='100px'  fill="#FFFFFF" xmlns="http://www.w3.org/2000/svg" xmlns:xlink="http://www.w3.org/1999/xlink" version="1.1" x="0px" y="0px" viewBox="0 0 100 100" style="enable-background:new 0 0 100 100;" xml:space="preserve"><path d="M29.9,29.9c-5.4,5.4-8.3,12.5-8.3,20.1c0,6.3,2,12.3,5.9,17.3c0.2,0.2,0.1,0.6-0.1,0.8c-0.1,0.1-0.2,0.1-0.3,0.1  c-0.2,0-0.3-0.1-0.4-0.2c-4-5.2-6.1-11.4-6.1-18c0-7.9,3.1-15.3,8.6-20.8c5.6-5.6,13-8.6,20.8-8.6c6.6,0,12.8,2.1,18,6.1  c0.2,0.2,0.3,0.5,0.1,0.8c-0.2,0.2-0.5,0.3-0.8,0.1c-5-3.8-11-5.9-17.3-5.9C42.4,21.6,35.3,24.6,29.9,29.9z M53,1  c10.3,0.6,20,4.4,28.1,11c3.9,3.2,7.2,6.9,10,11.1c2.8,4.3,4.9,8.9,6.2,13.8c0,0,0.1,0.1,0.1,0.1c0,0,0,0,0,0c0.1,0,0.1-0.1,0.1-0.1  C96.1,32,94,27.3,91.2,23c-2.8-4.2-6.1-8-10-11.2C73.1,5.3,63.4,1.5,53,0.8c-0.1,0-0.1,0-0.1,0.1C52.9,1,52.9,1,53,1z M12.2,45.4  c0,0.1,0.1,0.3,0.2,0.3c0.1,0,0.3-0.1,0.3-0.2C15,26.7,31,12.5,50,12.5s35,14.2,37.3,33c0,0.1,0.1,0.2,0.3,0.2c0,0,0,0,0,0  c0.1,0,0.3-0.2,0.2-0.3C85.5,26.3,69.3,11.9,50,11.9C30.7,11.9,14.5,26.3,12.2,45.4z M50,63.1c-7.2,0-13.1-5.9-13.1-13.1  c0-7.2,5.9-13.1,13.1-13.1c7.2,0,13.1,5.9,13.1,13.1C63.1,57.2,57.2,63.1,50,63.1z M59.9,50c0-5.4-4.4-9.9-9.9-9.9  c-5.4,0-9.9,4.4-9.9,9.9s4.4,9.9,9.9,9.9C55.4,59.9,59.9,55.4,59.9,50z M54,71.2c0.1,0,0.1,0,0.2,0c10.1-2,17.4-10.9,17.4-21.2  c0-10.3-7.3-19.2-17.4-21.2c-0.6-0.1-1.2,0.3-1.3,0.9c-0.1,0.6,0.3,1.2,0.9,1.3c9.1,1.8,15.6,9.8,15.6,19s-6.6,17.3-15.6,19  c-0.6,0.1-1,0.7-0.9,1.3C53,70.8,53.5,71.2,54,71.2z M87.8,54.6c0-0.1-0.1-0.3-0.2-0.3c-0.1,0-0.3,0.1-0.3,0.2  C85,73.3,69,87.5,50,87.5s-35-14.2-37.3-33c0-0.1-0.2-0.3-0.3-0.2c-0.1,0-0.3,0.2-0.2,0.3C14.5,73.7,30.7,88.1,50,88.1  C69.3,88.1,85.5,73.7,87.8,54.6z M97.4,63c-0.1,0-0.1,0-0.1,0.1c-1.3,4.9-3.4,9.5-6.2,13.8c-2.7,4.2-6.1,7.9-10,11.1  C73,94.5,63.3,98.3,53,99c-0.1,0-0.1,0.1-0.1,0.1c0,0.1,0.1,0.1,0.1,0.1c0,0,0,0,0,0c10.4-0.6,20.1-4.4,28.2-11  c3.9-3.2,7.3-6.9,10-11.2c2.8-4.3,4.9-8.9,6.3-13.8C97.5,63.1,97.5,63,97.4,63z M45.8,71.2c0.1,0,0.1,0,0.2,0c0.5,0,1-0.4,1.1-0.9  c0.1-0.6-0.3-1.2-0.9-1.3c-9.1-1.8-15.6-9.8-15.6-19s6.6-17.3,15.6-19c0.6-0.1,1-0.7,0.9-1.3c-0.1-0.6-0.7-1-1.3-0.9  c-10.1,2-17.4,10.9-17.4,21.2C28.4,60.3,35.7,69.2,45.8,71.2z M47,99c-10.3-0.6-20-4.4-28.1-11c-3.9-3.2-7.2-6.9-10-11.1  C6.2,72.6,4.1,68,2.7,63.1C2.7,63,2.6,63,2.6,63c-0.1,0-0.1,0.1-0.1,0.1C3.9,68,6,72.7,8.8,77c2.8,4.2,6.1,8,10,11.2  c8.1,6.6,17.8,10.4,28.2,11c0,0,0,0,0,0c0.1,0,0.1,0,0.1-0.1C47.1,99,47.1,99,47,99z M2.6,37C2.6,37,2.6,37,2.6,37  c0.1,0,0.1,0,0.1-0.1c1.3-4.9,3.4-9.5,6.2-13.8c2.7-4.2,6.1-7.9,10-11.1C27,5.5,36.7,1.7,47,1c0.1,0,0.1-0.1,0.1-0.1  c0-0.1-0.1-0.1-0.1-0.1c-10.4,0.6-20.1,4.4-28.2,11c-3.9,3.2-7.3,6.9-10,11.2C6,27.3,3.9,32,2.5,36.9C2.5,36.9,2.5,37,2.6,37z   M33.4,74.3c4.9,3.3,10.6,5.1,16.6,5.1c7.9,0,15.3-3.1,20.8-8.6c5.6-5.6,8.6-13,8.6-20.8c0-6-1.8-11.7-5.1-16.6  c-0.2-0.2-0.5-0.3-0.8-0.1c-0.2,0.2-0.3,0.5-0.1,0.8c3.2,4.7,4.9,10.2,4.9,16c0,7.6-3,14.7-8.3,20.1c-5.4,5.4-12.5,8.3-20.1,8.3  c-5.7,0-11.3-1.7-16-4.9c-0.2-0.2-0.6-0.1-0.8,0.1C33.1,73.8,33.2,74.2,33.4,74.3z"></path></svg>