<?xml version="1.0" encoding="UTF-8"?>
<svg width="1200pt" height="1200pt" version="1.1" viewBox="0 0 1200 1200" xmlns="http://www.w3.org/2000/svg">
 <path d="m806.64 549.96c13.895-7.8984 24.062-21.016 28.246-36.438 4.1875-15.426 2.0508-31.883-5.9414-45.723-7.9922-13.84-21.172-23.922-36.625-28.008-15.449-4.082-31.895-1.8359-45.68 6.2461l-68.641 39.602c-3.7031 2.1367-8.2617 2.1445-11.969 0.015625-3.707-2.125-6.0039-6.0625-6.0312-10.336v-79.32c0-15.914-6.3203-31.176-17.574-42.426-11.25-11.254-26.512-17.574-42.426-17.574s-31.176 6.3203-42.426 17.574c-11.254 11.25-17.574 26.512-17.574 42.426v79.32c-0.027344 4.2734-2.3242 8.2109-6.0312 10.336-3.707 2.1289-8.2656 2.1211-11.969-0.015625l-68.641-39.602c-13.785-8.082-30.23-10.328-45.68-6.2461-15.453 4.0859-28.633 14.168-36.625 28.008-7.9922 13.84-10.129 30.297-5.9414 45.723 4.1836 15.422 14.352 28.539 28.246 36.438l68.641 39.602v-0.003906c3.7578 2.1328 6.082 6.1211 6.082 10.441s-2.3242 8.3086-6.082 10.441l-68.641 39.602v-0.003907c-13.895 7.8984-24.062 21.016-28.246 36.438-4.1875 15.426-2.0508 31.883 5.9414 45.723 7.9922 13.84 21.172 23.922 36.625 28.008 15.449 4.082 31.895 1.8359 45.68-6.2461l68.641-39.602c3.7031-2.1367 8.2617-2.1445 11.969-0.015625 3.707 2.125 6.0039 6.0625 6.0312 10.336v79.32c0 15.914 6.3203 31.176 17.574 42.426 11.25 11.254 26.512 17.574 42.426 17.574s31.176-6.3203 42.426-17.574c11.254-11.25 17.574-26.512 17.574-42.426v-79.32c0.027344-4.2734 2.3242-8.2109 6.0312-10.336 3.707-2.1289 8.2656-2.1211 11.969 0.015625l68.641 39.602c18.551 10.547 41.309 10.445 59.77-0.26563 18.457-10.711 29.836-30.418 29.887-51.762 0.046875-21.34-11.246-41.102-29.656-51.895l-68.641-39.602v0.003906c-3.7578-2.1328-6.082-6.1211-6.082-10.441s2.3242-8.3086 6.082-10.441z" fill="#fff"/>
</svg>
