<svg height='100px' width='100px'  fill="#FFFFFF" xmlns="http://www.w3.org/2000/svg" xmlns:xlink="http://www.w3.org/1999/xlink" version="1.1" x="0px" y="0px" viewBox="0 0 100 100" style="enable-background:new 0 0 100 100;" xml:space="preserve"><style type="text/css">
	.st0{fill-rule:evenodd;clip-rule:evenodd;}
</style><g><path class="st0" d="M87.954,59.437l0.028-0.251l-0.039-0.25l-0.103-0.231l-0.16-0.196l-0.206-0.146l-0.238-0.087l-1.552-0.345   l-0.244-0.022l-0.241,0.041l-0.223,0.101l-0.19,0.155l-0.145,0.198l-0.089,0.228l-0.448,1.627l-0.524,1.604l-0.6,1.577   l-0.674,1.547l-0.746,1.513l-0.817,1.476l-0.886,1.436l-0.953,1.392l-1.018,1.346l-1.08,1.296l-1.14,1.243l-1.198,1.188   l-1.253,1.13l-1.305,1.069l-1.354,1.006l-1.4,0.941l-1.443,0.874L66.228,81.7l-1.52,0.733l-1.553,0.66l-1.582,0.586l-0.22,0.109   l-0.185,0.161l-0.137,0.203l-0.081,0.231l-0.02,0.244l0.043,0.241l0.477,1.517l0.107,0.229l0.164,0.193l0.209,0.143l0.239,0.083   l0.252,0.017l0.248-0.049l1.663-0.612l1.634-0.687l1.601-0.76l1.565-0.832l1.526-0.902l1.484-0.97l1.438-1.036l1.39-1.101   l1.338-1.162l1.284-1.222l1.228-1.279l1.168-1.333l1.107-1.385l1.043-1.433l0.977-1.479l0.909-1.522l0.839-1.562l0.767-1.598   l0.694-1.631l0.619-1.661l0.544-1.687L87.954,59.437 M91.04,60.204l-0.481,1.769l-0.557,1.747l-0.632,1.721l-0.706,1.692   l-0.779,1.66l-0.85,1.624l-0.92,1.586l-0.988,1.545l-1.054,1.5l-1.118,1.453l-1.18,1.404l-1.239,1.351l-1.297,1.296l-1.352,1.239   l-1.404,1.179l-1.454,1.117l-1.501,1.053l-1.545,0.987l-1.587,0.919l-1.625,0.849l-1.66,0.778l-1.692,0.705L63.7,90.009   l-0.53,0.143l-0.545,0.071l-0.549-0.001l-0.544-0.074l-0.53-0.146l-0.506-0.215l-0.473-0.28l-0.431-0.34l-0.382-0.394l-0.327-0.441   l-0.266-0.481l-0.199-0.512l-0.477-1.517l-0.135-0.564l-0.055-0.577l0.027-0.579l0.108-0.57l0.186-0.549l0.261-0.518l0.331-0.476   l0.395-0.425l0.45-0.366l0.497-0.299l0.534-0.226l1.512-0.562l1.482-0.637l1.449-0.71l1.412-0.781l1.371-0.85l1.327-0.917   l1.28-0.982l1.23-1.044l1.176-1.104l1.12-1.161l1.061-1.216l0.999-1.267l0.935-1.315l0.868-1.36l0.799-1.401l0.729-1.439   l0.656-1.474l0.582-1.505l0.507-1.532l0.43-1.555l0.18-0.551l0.255-0.521l0.326-0.48l0.39-0.43l0.446-0.371l0.493-0.305   l0.531-0.233l0.559-0.156l0.575-0.077l0.58,0.005l0.574,0.086l1.552,0.345l0.527,0.154l0.502,0.223l0.468,0.288l0.426,0.347   l0.376,0.401l0.319,0.447l0.257,0.485l0.191,0.515l0.121,0.536l0.049,0.547l-0.024,0.549L91.04,60.204"></path><path class="st0" d="M59.437,12.046l-0.251-0.028l-0.25,0.039l-0.231,0.103l-0.196,0.161l-0.146,0.206l-0.087,0.237l-0.345,1.552   l-0.022,0.244l0.041,0.242l0.101,0.223l0.154,0.19l0.198,0.145l0.228,0.089l1.627,0.448l1.604,0.524l1.577,0.599l1.547,0.674   l1.513,0.746l1.476,0.817l1.436,0.886l1.392,0.953l1.346,1.018l1.296,1.08l1.243,1.14l1.188,1.198l1.13,1.253l1.069,1.305   l1.006,1.354l0.941,1.4l0.874,1.444l0.804,1.483l0.733,1.52l0.66,1.553l0.586,1.582l0.109,0.219l0.161,0.185l0.203,0.138   l0.231,0.081l0.244,0.02l0.241-0.043l1.517-0.477l0.229-0.107l0.193-0.164l0.143-0.209l0.083-0.239l0.017-0.252l-0.049-0.248   l-0.612-1.664l-0.687-1.634l-0.76-1.601l-0.832-1.565l-0.902-1.526l-0.97-1.483l-1.036-1.438l-1.101-1.39l-1.162-1.338   l-1.222-1.284l-1.279-1.228l-1.333-1.168l-1.385-1.107l-1.433-1.043l-1.479-0.977l-1.522-0.909l-1.562-0.839l-1.598-0.767   l-1.631-0.694l-1.661-0.62l-1.687-0.544L59.437,12.046 M60.204,8.96l1.769,0.481l1.747,0.557l1.721,0.632l1.692,0.706l1.66,0.779   l1.624,0.85l1.586,0.92l1.545,0.988l1.5,1.054l1.453,1.118l1.404,1.179l1.351,1.239l1.296,1.297l1.239,1.352l1.179,1.404   l1.117,1.454l1.053,1.501l0.987,1.545l0.919,1.587l0.849,1.625l0.778,1.66l0.705,1.692l0.631,1.721l0.143,0.53l0.071,0.545   l-0.001,0.549l-0.074,0.544l-0.146,0.53l-0.215,0.506l-0.28,0.473l-0.34,0.431l-0.394,0.382l-0.441,0.327l-0.481,0.265   l-0.512,0.199l-1.517,0.477l-0.564,0.135l-0.577,0.055l-0.579-0.027l-0.57-0.108l-0.549-0.186l-0.518-0.261l-0.476-0.331   l-0.425-0.395l-0.366-0.45l-0.299-0.497l-0.226-0.534l-0.562-1.512l-0.637-1.482l-0.71-1.449l-0.781-1.412l-0.85-1.371   l-0.917-1.327l-0.982-1.28l-1.044-1.23l-1.104-1.176l-1.161-1.12l-1.216-1.061l-1.267-0.999l-1.315-0.935l-1.36-0.868l-1.401-0.799   l-1.439-0.729l-1.474-0.656l-1.505-0.582l-1.532-0.507l-1.555-0.43l-0.551-0.18L56.788,18.1l-0.48-0.326l-0.43-0.389l-0.371-0.446   l-0.305-0.493l-0.233-0.531l-0.156-0.558l-0.077-0.575l0.005-0.58l0.086-0.574l0.345-1.552l0.155-0.527l0.223-0.502l0.288-0.468   l0.347-0.426l0.401-0.376l0.447-0.319l0.485-0.257l0.515-0.191l0.536-0.121l0.547-0.049l0.549,0.024L60.204,8.96"></path><path class="st0" d="M12.046,40.563l-0.028,0.251l0.039,0.25l0.103,0.231l0.16,0.196l0.206,0.147l0.237,0.087l1.552,0.345   l0.244,0.022l0.241-0.041l0.223-0.101l0.19-0.154l0.145-0.198l0.089-0.228l0.448-1.627l0.524-1.604l0.6-1.577l0.674-1.547   l0.746-1.513l0.817-1.476l0.886-1.436l0.953-1.392l1.018-1.346l1.08-1.296l1.141-1.243l1.198-1.188l1.253-1.13l1.305-1.069   l1.354-1.006l1.4-0.941l1.444-0.874l1.483-0.804l1.52-0.733l1.553-0.66l1.582-0.586l0.22-0.109l0.185-0.161l0.138-0.203   l0.081-0.231l0.02-0.244l-0.043-0.241l-0.477-1.517l-0.107-0.229l-0.164-0.193l-0.209-0.143l-0.239-0.083l-0.252-0.018   l-0.248,0.049l-1.664,0.612l-1.634,0.687l-1.601,0.76l-1.565,0.832l-1.526,0.902l-1.483,0.97l-1.438,1.037l-1.39,1.1l-1.338,1.162   l-1.284,1.222l-1.228,1.279l-1.168,1.333l-1.107,1.385l-1.043,1.433l-0.977,1.479l-0.909,1.522l-0.839,1.561l-0.767,1.598   l-0.694,1.631l-0.619,1.661l-0.544,1.687L12.046,40.563 M8.96,39.796l0.481-1.769l0.557-1.747l0.632-1.721l0.706-1.692l0.779-1.66   l0.85-1.624l0.92-1.586l0.988-1.545l1.054-1.5l1.118-1.453l1.18-1.403l1.239-1.351l1.297-1.296l1.352-1.239l1.404-1.179   l1.454-1.117l1.501-1.053l1.545-0.987l1.586-0.919l1.625-0.849l1.66-0.778l1.692-0.705L36.3,9.991l0.53-0.143l0.545-0.071   l0.549,0.001l0.544,0.074l0.53,0.146l0.506,0.215l0.473,0.28l0.431,0.34l0.382,0.394l0.327,0.441l0.265,0.481l0.199,0.512   l0.477,1.517l0.135,0.564l0.055,0.577l-0.027,0.579l-0.108,0.57l-0.186,0.549l-0.261,0.518l-0.331,0.476l-0.395,0.425l-0.45,0.366   l-0.497,0.299l-0.534,0.227l-1.512,0.562l-1.483,0.637l-1.449,0.709l-1.412,0.781l-1.371,0.85l-1.327,0.917l-1.28,0.982   l-1.23,1.044l-1.176,1.104l-1.12,1.161l-1.061,1.216l-0.999,1.267l-0.935,1.315l-0.868,1.36l-0.799,1.401l-0.729,1.439   l-0.656,1.474l-0.582,1.505l-0.507,1.532l-0.43,1.555l-0.18,0.551L18.1,43.212l-0.326,0.48l-0.389,0.43l-0.446,0.371l-0.493,0.305   l-0.531,0.233l-0.559,0.156l-0.575,0.076l-0.58-0.005l-0.574-0.086l-1.552-0.345l-0.527-0.155l-0.502-0.223l-0.468-0.288   l-0.426-0.347l-0.376-0.401l-0.319-0.447l-0.257-0.485l-0.191-0.515l-0.121-0.536l-0.049-0.547l0.024-0.549L8.96,39.796"></path><path class="st0" d="M40.563,87.954l0.251,0.028l0.25-0.039l0.231-0.103l0.196-0.16l0.146-0.206l0.087-0.238l0.345-1.552   l0.022-0.244l-0.041-0.241l-0.101-0.223l-0.155-0.19l-0.198-0.145l-0.228-0.089l-1.627-0.448l-1.604-0.524l-1.577-0.6l-1.547-0.674   l-1.513-0.746l-1.476-0.817l-1.436-0.886l-1.392-0.953l-1.346-1.018l-1.296-1.08l-1.243-1.14l-1.188-1.198l-1.13-1.253   l-1.069-1.305l-1.006-1.354l-0.941-1.4l-0.874-1.443L18.3,66.228l-0.733-1.52l-0.66-1.553l-0.586-1.582l-0.109-0.219l-0.161-0.185   l-0.203-0.137l-0.231-0.081l-0.244-0.02l-0.241,0.043l-1.517,0.477l-0.229,0.107l-0.193,0.164l-0.143,0.209l-0.083,0.239   l-0.018,0.252l0.05,0.248l0.612,1.663l0.687,1.634l0.76,1.601l0.832,1.565l0.902,1.526l0.97,1.484l1.036,1.438l1.101,1.39   l1.162,1.338l1.222,1.284l1.279,1.228l1.333,1.168l1.385,1.107l1.433,1.043l1.479,0.977l1.522,0.909l1.561,0.839l1.598,0.767   l1.631,0.694l1.661,0.619l1.687,0.544L40.563,87.954 M39.796,91.04l-1.769-0.481l-1.747-0.557l-1.721-0.632l-1.692-0.706   l-1.66-0.779l-1.624-0.85l-1.586-0.92l-1.545-0.988l-1.5-1.054l-1.453-1.118l-1.403-1.18l-1.351-1.239l-1.296-1.297l-1.239-1.352   l-1.179-1.404l-1.117-1.454l-1.053-1.501l-0.987-1.545l-0.919-1.587l-0.849-1.625l-0.778-1.66l-0.705-1.692L9.991,63.7l-0.143-0.53   l-0.071-0.545l0.001-0.549l0.074-0.544l0.146-0.53l0.215-0.506l0.28-0.473l0.34-0.431l0.394-0.383l0.441-0.327l0.481-0.266   l0.512-0.199l1.517-0.477l0.564-0.135l0.577-0.055l0.579,0.027l0.57,0.108l0.549,0.186l0.518,0.261l0.476,0.331l0.425,0.395   l0.366,0.45l0.299,0.497l0.227,0.534l0.562,1.512l0.637,1.482l0.709,1.449l0.781,1.412l0.85,1.371l0.917,1.327l0.982,1.28   l1.044,1.23l1.104,1.176l1.161,1.12l1.216,1.061l1.267,0.999l1.315,0.935l1.36,0.868l1.401,0.799l1.439,0.729l1.474,0.656   l1.505,0.582l1.532,0.507l1.555,0.43l0.551,0.18l0.521,0.255l0.48,0.326l0.43,0.39l0.371,0.446l0.305,0.493l0.233,0.531   l0.156,0.559l0.077,0.575l-0.005,0.58l-0.086,0.574l-0.345,1.552l-0.154,0.527l-0.223,0.502l-0.288,0.468l-0.347,0.426   l-0.401,0.376l-0.447,0.319l-0.485,0.257l-0.515,0.191l-0.536,0.121l-0.547,0.049l-0.549-0.024L39.796,91.04"></path><path class="st0" d="M75.032,56.061l0.007-0.188l-0.066-0.176l-0.129-0.137l-0.172-0.076l-1.863-0.414l-0.184-0.005l-0.172,0.065   l-0.134,0.125l-0.077,0.167l-0.36,1.306l-0.436,1.283l-0.511,1.255l-0.585,1.222l-0.656,1.186l-0.725,1.145l-0.792,1.1   l-0.855,1.051l-0.916,0.999l-0.974,0.943l-1.028,0.883l-1.078,0.821l-1.125,0.756l-1.167,0.688l-1.206,0.618l-1.241,0.545   l-1.271,0.471l-0.16,0.091l-0.113,0.145l-0.05,0.177l0.02,0.183l0.573,1.82l0.091,0.165l0.148,0.117l0.181,0.051l0.187-0.023   l1.356-0.498l1.326-0.573l1.292-0.646l1.253-0.718l1.211-0.787l1.165-0.854l1.115-0.917l1.062-0.979l1.006-1.036l0.946-1.091   l0.883-1.143l0.818-1.19l0.75-1.234l0.68-1.274l0.607-1.31l0.533-1.342l0.457-1.37L75.032,56.061 M59.104,77.13l-0.514,0.128   l-0.528,0.045l-0.529-0.039l-0.516-0.122l-0.49-0.202l-0.452-0.277l-0.402-0.345l-0.342-0.405l-0.274-0.454l-0.199-0.492   l-0.573-1.82l-0.117-0.504l-0.037-0.516l0.043-0.515l0.122-0.503l0.198-0.478l0.269-0.441l0.334-0.395l0.391-0.338l0.439-0.274   l0.476-0.203l1.18-0.44l1.151-0.513l1.116-0.585l1.077-0.653l1.034-0.72l0.986-0.784l0.935-0.844l0.88-0.901l0.822-0.955   l0.76-1.004l0.696-1.05l0.628-1.092l0.558-1.129l0.486-1.162l0.412-1.19l0.337-1.214l0.161-0.491l0.235-0.461l0.303-0.419   l0.364-0.367l0.417-0.306l0.459-0.238l0.49-0.165l0.51-0.087l0.517-0.007l0.512,0.073l1.863,0.414l0.507,0.156l0.476,0.234   l0.433,0.306l0.379,0.371l0.315,0.426l0.244,0.471l0.166,0.503l0.084,0.523l0,0.53l-0.083,0.524l-0.397,1.467l-0.474,1.444   l-0.55,1.417l-0.625,1.386L75.069,63.8l-0.768,1.312l-0.837,1.269l-0.903,1.223l-0.967,1.173l-1.028,1.12l-1.086,1.064   l-1.141,1.005l-1.192,0.943l-1.241,0.878l-1.286,0.811l-1.327,0.742l-1.364,0.67l-1.398,0.597L59.104,77.13"></path><path class="st0" d="M56.061,24.968l-0.188-0.007l-0.176,0.066l-0.137,0.129l-0.076,0.172l-0.414,1.863l-0.005,0.184l0.065,0.172   l0.125,0.134l0.167,0.077l1.306,0.36l1.283,0.436l1.255,0.511l1.222,0.585l1.186,0.656l1.145,0.725l1.1,0.792l1.051,0.855   l0.999,0.916l0.943,0.973l0.883,1.028l0.821,1.078l0.756,1.125l0.688,1.167l0.618,1.206l0.545,1.241l0.471,1.271l0.091,0.16   l0.145,0.113l0.177,0.05l0.183-0.02l1.82-0.573l0.165-0.091l0.117-0.148l0.051-0.181l-0.023-0.187l-0.498-1.356l-0.573-1.326   L72.7,37.833l-0.718-1.253l-0.787-1.211l-0.854-1.165l-0.917-1.115l-0.979-1.062l-1.036-1.006l-1.091-0.946l-1.143-0.883   l-1.19-0.818l-1.234-0.75l-1.274-0.68l-1.31-0.607l-1.342-0.533l-1.37-0.457L56.061,24.968 M77.13,40.896l0.128,0.514l0.045,0.528   l-0.039,0.529l-0.122,0.516l-0.202,0.49l-0.277,0.452l-0.345,0.402l-0.405,0.342l-0.454,0.274l-0.492,0.199l-1.82,0.573   l-0.504,0.117l-0.516,0.037l-0.515-0.043l-0.503-0.122l-0.478-0.198l-0.441-0.269l-0.395-0.334l-0.338-0.391l-0.274-0.439   l-0.203-0.476l-0.44-1.18l-0.513-1.151l-0.585-1.116l-0.653-1.077l-0.72-1.034l-0.784-0.986l-0.844-0.935l-0.901-0.88l-0.955-0.822   l-1.004-0.76l-1.05-0.696l-1.092-0.628l-1.129-0.558l-1.162-0.486l-1.19-0.412l-1.214-0.337l-0.491-0.161l-0.461-0.235   l-0.419-0.303l-0.367-0.364L52.7,29.058l-0.238-0.459l-0.165-0.49l-0.087-0.51l-0.007-0.517l0.073-0.512l0.414-1.863l0.156-0.507   l0.234-0.476l0.306-0.433l0.371-0.379l0.426-0.315l0.471-0.244l0.503-0.166l0.523-0.084l0.53,0l0.524,0.083l1.467,0.397   l1.444,0.474l1.417,0.55l1.386,0.625l1.351,0.697l1.312,0.768l1.269,0.837l1.223,0.903l1.173,0.967l1.12,1.028l1.064,1.086   l1.005,1.141l0.943,1.192l0.878,1.241l0.811,1.286l0.742,1.327l0.67,1.365l0.597,1.398L77.13,40.896"></path><path class="st0" d="M24.968,43.939l-0.007,0.188l0.066,0.176l0.129,0.137l0.172,0.076l1.863,0.414l0.184,0.005l0.172-0.065   l0.134-0.125l0.077-0.167l0.36-1.307l0.436-1.283l0.511-1.255l0.585-1.222l0.656-1.186l0.725-1.145l0.792-1.1l0.855-1.051   l0.916-0.999l0.973-0.943l1.028-0.883l1.078-0.821l1.125-0.756l1.167-0.688l1.206-0.618l1.241-0.545l1.271-0.471l0.16-0.091   l0.113-0.145l0.05-0.177l-0.02-0.183l-0.573-1.82l-0.091-0.165l-0.148-0.117l-0.181-0.051l-0.187,0.024l-1.356,0.498l-1.326,0.573   L37.833,27.3l-1.253,0.718l-1.211,0.787l-1.165,0.853l-1.115,0.917l-1.062,0.978l-1.006,1.036l-0.946,1.091l-0.883,1.143   l-0.818,1.19l-0.75,1.234l-0.68,1.274l-0.607,1.31l-0.533,1.342l-0.457,1.37L24.968,43.939 M40.896,22.87l0.514-0.128l0.528-0.045   l0.529,0.039l0.516,0.122l0.49,0.202l0.452,0.277l0.402,0.345l0.342,0.405l0.274,0.454l0.199,0.491l0.573,1.82l0.117,0.504   l0.037,0.516l-0.043,0.515l-0.122,0.503l-0.198,0.478l-0.269,0.441l-0.334,0.394l-0.391,0.338l-0.439,0.274l-0.476,0.203   l-1.18,0.44l-1.15,0.513l-1.116,0.585l-1.077,0.654l-1.034,0.72l-0.986,0.783l-0.935,0.844l-0.88,0.901l-0.822,0.955l-0.76,1.004   l-0.696,1.05l-0.628,1.092l-0.559,1.129l-0.486,1.162l-0.412,1.19l-0.337,1.214l-0.161,0.491l-0.235,0.461l-0.303,0.419   l-0.364,0.367L29.058,47.3l-0.459,0.238l-0.49,0.165l-0.51,0.087l-0.517,0.007l-0.512-0.073l-1.863-0.414l-0.507-0.156   l-0.476-0.234l-0.433-0.306l-0.379-0.371l-0.315-0.426l-0.244-0.471l-0.166-0.503l-0.084-0.524l-0.001-0.53l0.084-0.524   l0.397-1.467l0.474-1.444l0.55-1.417l0.625-1.386l0.697-1.351l0.768-1.312l0.837-1.269l0.903-1.223l0.967-1.173l1.028-1.12   l1.086-1.064l1.141-1.005l1.192-0.943l1.241-0.878l1.286-0.811l1.327-0.742l1.364-0.67l1.398-0.597L40.896,22.87"></path><path class="st0" d="M43.939,75.032l0.188,0.007l0.176-0.066l0.137-0.129l0.076-0.172l0.414-1.863l0.005-0.184l-0.065-0.172   l-0.125-0.134l-0.167-0.077l-1.306-0.36l-1.283-0.436l-1.255-0.511l-1.222-0.585l-1.186-0.656l-1.145-0.725l-1.1-0.792   l-1.051-0.855l-0.999-0.916l-0.943-0.974l-0.883-1.028l-0.821-1.078l-0.756-1.125l-0.688-1.167l-0.618-1.206l-0.545-1.241   l-0.471-1.271l-0.091-0.16l-0.145-0.113l-0.177-0.05l-0.183,0.02l-1.82,0.573l-0.165,0.091l-0.117,0.148l-0.051,0.181l0.024,0.187   l0.498,1.356l0.573,1.326l0.646,1.292l0.718,1.253l0.787,1.211l0.853,1.165l0.917,1.115l0.979,1.062l1.036,1.006l1.091,0.946   l1.142,0.883l1.19,0.818l1.234,0.75l1.274,0.68l1.31,0.607l1.342,0.533l1.37,0.457L43.939,75.032 M22.87,59.104l-0.128-0.514   l-0.045-0.528l0.039-0.529l0.122-0.516l0.202-0.49l0.277-0.452l0.345-0.402l0.405-0.343l0.454-0.274l0.491-0.199l1.82-0.573   l0.504-0.117l0.516-0.037l0.515,0.043l0.503,0.122l0.478,0.198l0.441,0.269l0.394,0.334l0.338,0.391l0.274,0.439l0.203,0.476   l0.44,1.18l0.513,1.15l0.584,1.116l0.654,1.077l0.72,1.034l0.784,0.986l0.844,0.935l0.901,0.88l0.955,0.822l1.004,0.76l1.05,0.696   l1.092,0.628l1.129,0.558l1.162,0.486l1.19,0.412l1.214,0.337l0.491,0.161l0.461,0.235l0.419,0.303l0.367,0.364l0.306,0.417   l0.238,0.459l0.165,0.49l0.087,0.51l0.007,0.517l-0.073,0.512l-0.414,1.863l-0.156,0.507l-0.234,0.476l-0.306,0.433l-0.371,0.379   l-0.426,0.315l-0.471,0.244l-0.503,0.166l-0.523,0.084l-0.53,0l-0.524-0.083l-1.467-0.397l-1.444-0.474l-1.417-0.55l-1.386-0.625   L36.2,75.069l-1.312-0.768l-1.269-0.837l-1.223-0.903l-1.173-0.967l-1.12-1.028l-1.064-1.086l-1.005-1.141l-0.943-1.192   l-0.878-1.241l-0.811-1.286l-0.742-1.327l-0.67-1.364l-0.597-1.398L22.87,59.104"></path></g></svg>