<svg height='100px' width='100px'  fill="#FFFFFF" xmlns="http://www.w3.org/2000/svg" xmlns:xlink="http://www.w3.org/1999/xlink" version="1.1" x="0px" y="0px" viewBox="0 0 100 100" style="enable-background:new 0 0 100 100;" xml:space="preserve"><style type="text/css">
	.st0{fill-rule:evenodd;clip-rule:evenodd;}
</style><g><polyline class="st0" points="67.162,17.264 67.373,17.404 67.539,17.595 67.649,17.823 67.695,18.072 67.675,18.324    67.589,18.561 66.854,19.972 66.713,20.173 66.527,20.331 66.306,20.437 66.065,20.483 65.821,20.466 65.589,20.388 64.056,19.683    62.491,19.052 60.898,18.496 59.281,18.016 57.642,17.613 55.987,17.288 54.318,17.042 52.639,16.875 50.954,16.788 49.267,16.781    47.581,16.853 45.901,17.006 44.229,17.238 42.571,17.549 40.929,17.938 39.308,18.404 37.71,18.946 36.14,19.564 34.601,20.255    33.097,21.019 31.63,21.853 31.405,21.951 31.163,21.988 30.92,21.963 30.691,21.877 30.491,21.735 30.334,21.547 29.48,20.205    29.374,19.975 29.332,19.726 29.356,19.474 29.447,19.238 29.596,19.034 29.793,18.876 31.332,17.996 32.91,17.188 34.522,16.451    36.166,15.789 37.839,15.202 39.536,14.691 41.255,14.257 42.991,13.902 44.742,13.626 46.504,13.429 48.273,13.313 50.045,13.277    51.817,13.321 53.585,13.445 55.346,13.649 57.095,13.933 58.831,14.296 60.547,14.737 62.242,15.256 63.912,15.851 65.553,16.52    67.162,17.264  "></polyline><polyline class="st0" points="62.777,26.446 61.389,25.805 59.969,25.238 58.521,24.747 57.049,24.334 55.557,23.998    54.049,23.742 52.53,23.566 51.004,23.47 49.475,23.455 47.948,23.521 46.426,23.668 44.913,23.894 43.415,24.201 41.936,24.586    40.478,25.048 39.047,25.587 37.647,26.201 36.281,26.888 34.953,27.646 34.771,27.721 34.576,27.737 34.384,27.692 34.216,27.591    34.086,27.444 33.062,25.834 32.982,25.649 32.964,25.448 33.01,25.252 33.115,25.08 33.268,24.949 34.67,24.144 36.11,23.411    37.586,22.751 39.093,22.166 40.627,21.657 42.185,21.226 43.763,20.875 45.356,20.603 46.961,20.412 48.574,20.302 50.19,20.273    51.806,20.325 53.417,20.458 55.019,20.673 56.608,20.968 58.181,21.342 59.732,21.795 61.259,22.326 62.758,22.933 64.223,23.614    64.387,23.731 64.507,23.894 64.569,24.085 64.569,24.287 64.505,24.478 63.623,26.17 63.506,26.328 63.347,26.443 63.161,26.504    62.964,26.505 62.777,26.446  "></polyline><polyline class="st0" points="60.123,31.873 58.892,31.308 57.629,30.816 56.339,30.4 55.027,30.061 53.698,29.8 52.355,29.618    51.004,29.517 49.649,29.495 48.295,29.553 46.947,29.691 45.61,29.909 44.287,30.206 42.985,30.58 41.707,31.031 40.458,31.557    39.242,32.155 38.064,32.825 37.892,32.888 37.708,32.882 37.541,32.806 37.414,32.673 36.39,31.063 36.322,30.888 36.327,30.699    36.405,30.528 36.544,30.4 37.797,29.683 39.089,29.037 40.415,28.464 41.77,27.967 43.152,27.547 44.555,27.204 45.975,26.941    47.408,26.758 48.848,26.655 50.292,26.633 51.735,26.692 53.173,26.832 54.6,27.053 56.012,27.353 57.406,27.731 58.776,28.188    60.119,28.72 61.429,29.327 61.578,29.442 61.67,29.606 61.692,29.793 61.64,29.974 60.758,31.666 60.643,31.81 60.483,31.899    60.3,31.922 60.123,31.873  "></polyline><polyline class="st0" points="10.939,55.048 10.955,54.795 11.037,54.556 11.18,54.347 11.372,54.182 11.6,54.074 11.849,54.03    13.438,53.961 13.682,53.982 13.913,54.064 14.115,54.203 14.275,54.388 14.383,54.608 14.431,54.848 14.587,56.528 14.823,58.199    15.138,59.856 15.531,61.497 16.001,63.118 16.548,64.714 17.169,66.283 17.864,67.82 18.631,69.323 19.468,70.787 20.374,72.211    21.346,73.59 22.383,74.921 23.481,76.202 24.639,77.429 25.853,78.6 27.122,79.713 28.442,80.764 29.81,81.751 31.223,82.672    32.679,83.526 32.876,83.671 33.03,83.862 33.13,84.085 33.169,84.327 33.146,84.571 33.062,84.8 32.327,86.211 32.181,86.418    31.986,86.579 31.756,86.683 31.506,86.723 31.255,86.697 31.019,86.604 29.488,85.711 27.999,84.749 26.555,83.721 25.159,82.629    23.815,81.474 22.524,80.259 21.289,78.988 20.113,77.661 18.998,76.283 17.947,74.856 16.962,73.382 16.045,71.866 15.197,70.309    14.42,68.715 13.717,67.088 13.088,65.431 12.535,63.747 12.058,62.04 11.66,60.313 11.34,58.569 11.099,56.813 10.939,55.048  "></polyline><polyline class="st0" points="21.083,54.254 21.222,55.777 21.442,57.29 21.741,58.79 22.118,60.272 22.574,61.731 23.106,63.165    23.712,64.568 24.393,65.938 25.144,67.269 25.965,68.559 26.853,69.804 27.806,71.001 28.82,72.145 29.893,73.234 31.022,74.265    32.205,75.235 33.437,76.14 34.714,76.98 36.035,77.751 36.19,77.871 36.302,78.032 36.359,78.22 36.356,78.416 36.293,78.602    35.411,80.295 35.291,80.456 35.126,80.572 34.933,80.631 34.731,80.626 34.542,80.558 33.144,79.747 31.788,78.866 30.479,77.919    29.219,76.906 28.011,75.831 26.859,74.697 25.766,73.507 24.734,72.263 23.765,70.968 22.864,69.627 22.03,68.242 21.268,66.816    20.578,65.354 19.963,63.86 19.424,62.336 18.962,60.787 18.578,59.217 18.274,57.629 18.051,56.028 17.908,54.418 17.927,54.217    18.008,54.033 18.143,53.883 18.318,53.783 18.515,53.742 20.421,53.66 20.616,53.682 20.795,53.762 20.942,53.893 21.041,54.063    21.083,54.254  "></polyline><polyline class="st0" points="27.11,53.839 27.236,55.188 27.442,56.528 27.727,57.853 28.089,59.158 28.528,60.44 29.042,61.694    29.629,62.915 30.288,64.099 31.015,65.243 31.809,66.341 32.667,67.39 33.585,68.387 34.56,69.328 35.589,70.209 36.669,71.028    37.795,71.782 38.964,72.467 39.105,72.585 39.191,72.747 39.21,72.93 39.158,73.106 38.276,74.798 38.158,74.945 37.992,75.034    37.804,75.052 37.625,74.996 36.377,74.269 35.171,73.474 34.013,72.612 32.904,71.686 31.849,70.7 30.851,69.656 29.913,68.558    29.038,67.409 28.229,66.213 27.488,64.973 26.818,63.694 26.22,62.379 25.698,61.033 25.251,59.659 24.882,58.263 24.592,56.848    24.382,55.42 24.252,53.981 24.278,53.795 24.374,53.633 24.525,53.52 24.708,53.475 26.614,53.393 26.796,53.42 26.953,53.515    27.064,53.661 27.11,53.839  "></polyline><polyline class="st0" points="71.772,84.847 71.545,84.959 71.297,85.007 71.045,84.989 70.806,84.905 70.598,84.761    70.435,84.567 69.582,83.225 69.478,83.004 69.434,82.763 69.453,82.519 69.533,82.287 69.67,82.084 69.854,81.922 71.23,80.947    72.559,79.907 73.837,78.806 75.062,77.645 76.23,76.428 77.339,75.156 78.387,73.834 79.371,72.463 80.289,71.048 81.139,69.59    81.918,68.094 82.627,66.563 83.261,64.999 83.821,63.408 84.305,61.792 84.712,60.154 85.041,58.499 85.291,56.831 85.462,55.152    85.553,53.468 85.565,51.78 85.592,51.537 85.68,51.309 85.824,51.11 86.013,50.955 86.236,50.853 86.477,50.811 88.066,50.743    88.318,50.765 88.555,50.853 88.761,51.001 88.921,51.197 89.023,51.428 89.061,51.678 89.053,53.451 88.965,55.221 88.796,56.986    88.548,58.741 88.22,60.483 87.814,62.208 87.33,63.914 86.769,65.595 86.133,67.249 85.422,68.873 84.639,70.463 83.784,72.016    82.86,73.529 81.868,74.998 80.811,76.421 79.69,77.794 78.508,79.115 77.268,80.381 75.971,81.59 74.621,82.739 73.221,83.825    71.772,84.847  "></polyline><polyline class="st0" points="66.013,76.458 67.262,75.576 68.463,74.63 69.612,73.621 70.707,72.553 71.743,71.429 72.719,70.252    73.631,69.024 74.476,67.75 75.254,66.434 75.961,65.078 76.595,63.686 77.155,62.263 77.638,60.813 78.045,59.339 78.373,57.845    78.622,56.337 78.79,54.817 78.878,53.29 78.886,51.761 78.912,51.567 78.996,51.389 79.13,51.246 79.302,51.151 79.494,51.112    81.401,51.03 81.601,51.053 81.784,51.138 81.931,51.276 82.027,51.453 82.064,51.651 82.06,53.267 81.975,54.882 81.809,56.489    81.562,58.087 81.235,59.67 80.829,61.235 80.345,62.777 79.784,64.293 79.147,65.778 78.436,67.23 77.653,68.644 76.8,70.017    75.878,71.346 74.892,72.626 73.842,73.855 72.731,75.029 71.563,76.147 70.34,77.204 69.065,78.198 67.742,79.127 67.559,79.21    67.359,79.232 67.162,79.19 66.987,79.089 66.854,78.938 65.829,77.328 65.751,77.149 65.731,76.953 65.771,76.761 65.868,76.591    66.013,76.458  "></polyline><polyline class="st0" points="62.64,71.446 63.745,70.662 64.802,69.814 65.808,68.906 66.757,67.939 67.648,66.918 68.477,65.846    69.241,64.727 69.937,63.564 70.563,62.362 71.117,61.126 71.597,59.859 72.002,58.565 72.329,57.25 72.577,55.918 72.746,54.574    72.836,53.222 72.845,51.867 72.877,51.686 72.974,51.53 73.123,51.422 73.302,51.379 75.208,51.297 75.394,51.326 75.554,51.425    75.664,51.578 75.705,51.762 75.7,53.206 75.614,54.648 75.446,56.082 75.199,57.505 74.873,58.912 74.468,60.298 73.985,61.66    73.428,62.992 72.797,64.291 72.093,65.552 71.321,66.772 70.481,67.947 69.576,69.073 68.61,70.146 67.585,71.164 66.505,72.122    65.373,73.019 64.192,73.85 64.018,73.922 63.829,73.92 63.657,73.845 63.526,73.709 62.502,72.099 62.435,71.928 62.437,71.744    62.509,71.575 62.64,71.446  "></polyline></g></svg>